<svg width="44" height="44" viewBox="0 0 44 44" fill="none" xmlns="http://www.w3.org/2000/svg">
<path d="M27.1667 14.6667V13.7333C27.1667 12.4265 27.1667 11.7731 26.9123 11.274C26.6886 10.835 26.3317 10.478 25.8926 10.2543C25.3935 10 24.7401 10 23.4333 10H21.5667C20.2599 10 19.6065 10 19.1074 10.2543C18.6683 10.478 18.3114 10.835 18.0877 11.274C17.8333 11.7731 17.8333 12.4265 17.8333 13.7333V14.6667M12 14.6667H33M30.6667 14.6667V27.7333C30.6667 29.6935 30.6667 30.6736 30.2852 31.4223C29.9496 32.0809 29.4142 32.6163 28.7556 32.9519C28.0069 33.3333 27.0268 33.3333 25.0667 33.3333H19.9333C17.9731 33.3333 16.9931 33.3333 16.2444 32.9519C15.5858 32.6163 15.0504 32.0809 14.7148 31.4223C14.3333 30.6736 14.3333 29.6935 14.3333 27.7333V14.6667" stroke="#0E190F" stroke-opacity="0.5" stroke-width="2" stroke-linecap="round" stroke-linejoin="round"/>
<circle cx="22" cy="22" r="21" stroke="#0E190F" stroke-opacity="0.5" stroke-width="2"/>
</svg>
