<svg width="50" height="50" viewBox="0 0 50 50" fill="none" xmlns="http://www.w3.org/2000/svg">
<circle cx="25" cy="25" r="24" stroke="#F4F2EB" stroke-width="2"/>
<path fill-rule="evenodd" clip-rule="evenodd" d="M22.1269 16C22.2937 14.9954 22.6144 14.1189 23.0256 13.4438C23.65 12.4187 24.3773 12 25 12C25.6227 12 26.35 12.4187 26.9744 13.4438C27.3856 14.1189 27.7063 14.9954 27.8731 16H22.1269ZM20.0078 18C20.0361 18.7813 20.1408 19.5331 20.3116 20.2361C20.442 20.7728 20.9828 21.1021 21.5194 20.9717C22.0561 20.8413 22.3855 20.3006 22.255 19.7639C22.122 19.2164 22.0366 18.6234 22.0094 18H27.9906C27.9634 18.6234 27.878 19.2164 27.745 19.7639C27.6146 20.3006 27.9439 20.8413 28.4806 20.9717C29.0172 21.1021 29.558 20.7728 29.6884 20.2361C29.8592 19.5331 29.9639 18.7813 29.9922 18H31.2017L33.8333 35H16.1667L18.7983 18H20.0078ZM20.1046 16C20.2889 14.6405 20.7103 13.4004 21.3175 12.4034C22.1409 11.0515 23.4136 10 25 10C26.5864 10 27.8591 11.0515 28.6825 12.4034C29.2897 13.4004 29.7111 14.6405 29.8954 16H32.0588C32.552 16 32.9716 16.3596 33.0471 16.847L35.9882 35.847C36.0329 36.1355 35.9493 36.4291 35.7593 36.6508C35.5693 36.8724 35.2919 37 35 37H15C14.7081 37 14.4307 36.8724 14.2407 36.6508C14.0508 36.4291 13.9671 36.1355 14.0118 35.847L16.953 16.847C17.0284 16.3596 17.448 16 17.9412 16H20.1046Z" fill="#F4F2EB"/>
</svg>
