<svg width="22" height="23" viewBox="0 0 22 23" fill="none" xmlns="http://www.w3.org/2000/svg">
<path fill-rule="evenodd" clip-rule="evenodd" d="M8.90764 5.52344C9.04549 4.82446 9.27886 4.21648 9.56764 3.74232C10.0508 2.94905 10.5859 2.66927 11 2.66927C11.4141 2.66927 11.9492 2.94905 12.4324 3.74232C12.7212 4.21648 12.9545 4.82446 13.0924 5.52344H8.90764ZM6.82659 7.48177C6.85775 8.05907 6.94005 8.61578 7.06744 9.14005C7.19512 9.66554 7.72462 9.98802 8.25011 9.86034C8.7756 9.73265 9.09808 9.20315 8.9704 8.67766C8.87966 8.30423 8.81711 7.90296 8.78851 7.48177H13.2115C13.1829 7.90296 13.1204 8.30423 13.0296 8.67766C12.9019 9.20315 13.2244 9.73265 13.7499 9.86034C14.2754 9.98802 14.8049 9.66554 14.9326 9.14005C15.06 8.61578 15.1423 8.05907 15.1734 7.48177H15.8225L17.8784 20.763H4.12158L6.1775 7.48177H6.82659ZM6.92015 5.52344C7.08096 4.4713 7.41705 3.50857 7.8951 2.72366C8.57315 1.61038 9.64223 0.710938 11 0.710938C12.3578 0.710938 13.4269 1.61038 14.1049 2.72366C14.583 3.50857 14.9191 4.4713 15.0799 5.52344H16.6618C17.1447 5.52344 17.5555 5.87556 17.6294 6.35281L19.9885 21.5924C20.0322 21.8749 19.9503 22.1624 19.7643 22.3794C19.5783 22.5964 19.3067 22.7214 19.0208 22.7214H2.97917C2.69332 22.7214 2.42175 22.5964 2.23572 22.3794C2.0497 22.1624 1.9678 21.8749 2.01153 21.5924L4.3706 6.35281C4.44448 5.87556 4.8553 5.52344 5.33824 5.52344H6.92015Z" fill="#F4F2EB"/>
</svg>
