<svg width="34" height="34" viewBox="0 0 34 34" fill="none" xmlns="http://www.w3.org/2000/svg">
<path d="M33 17C33 8.16344 25.8365 1 17 1C8.16344 1 1 8.16344 1 17C1 25.8365 8.16344 33 17 33C19.4067 33 21.6893 32.4686 23.7368 31.5169M33 17.4211C33 19.5139 31.3033 21.2105 29.2105 21.2105C27.1177 21.2105 25.4211 19.5139 25.4211 17.4211M25.4211 17C25.4211 21.6508 21.6508 25.4211 17 25.4211C12.3492 25.4211 8.57895 21.6508 8.57895 17C8.57895 12.3492 12.3492 8.57895 17 8.57895C21.6508 8.57895 25.4211 12.3492 25.4211 17Z" stroke="#768F78" stroke-width="1.25" stroke-linecap="round"/>
</svg>
