<svg width="121" height="34" viewBox="0 0 121 34" fill="none" xmlns="http://www.w3.org/2000/svg">
<path fill-rule="evenodd" clip-rule="evenodd" d="M76.2371 2.5135C76.2371 3.83695 74.9559 4.90982 73.3754 4.90982C71.7949 4.90982 70.5136 3.83695 70.5136 2.5135C70.5136 1.19005 71.7949 0.117188 73.3754 0.117188C74.9559 0.117188 76.2371 1.19005 76.2371 2.5135ZM41.1336 33.8793C36.0188 33.8793 32.3221 32.6904 30.0467 30.3126C27.7713 27.9348 26.6336 24.6121 26.6336 20.3475C26.6336 17.6084 27.1307 15.2522 28.1282 13.279C29.1257 11.3057 30.6872 9.77715 32.8128 8.69634C34.9384 7.61552 37.7141 7.07512 41.1336 7.07512H42.5167C45.8788 7.07512 48.6067 7.60935 50.7036 8.67472C52.8005 9.74009 54.3398 11.2687 55.3213 13.2574C56.3028 15.2461 56.7936 17.6084 56.7936 20.3475C56.7936 24.6121 55.6623 27.9348 53.4028 30.3126C51.1434 32.6904 47.5136 33.8793 42.5167 33.8793H41.1336ZM41.5798 30.3774H42.0705C44.3013 30.3774 46.1305 30.0594 47.5582 29.4263C48.9859 28.7933 50.0503 27.7464 50.7482 26.292C51.4461 24.8375 51.7967 22.855 51.7967 20.3475C51.7967 17.84 51.4398 15.9594 50.7259 14.5327C50.0121 13.106 48.9413 12.0839 47.5136 11.4632C46.0859 10.8425 44.2726 10.5337 42.0705 10.5337H41.5798C39.349 10.5337 37.4974 10.8518 36.0251 11.4848C34.5528 12.1179 33.4534 13.1555 32.7236 14.5976C31.9938 16.0397 31.6305 17.9543 31.6305 20.3475C31.6305 22.7407 31.9938 24.8004 32.7236 26.2703C33.4534 27.7402 34.5592 28.7933 36.0474 29.4263C37.5357 30.0594 39.3777 30.3774 41.5798 30.3774ZM88.4306 33.4488C88.5485 33.4488 88.7588 33.2481 89.0552 32.8435C89.3516 32.439 89.7403 31.7627 90.2152 30.8116C90.4223 30.3793 90.7792 29.6443 91.2859 28.6068C91.627 27.9084 92.007 27.1247 92.428 26.2566C92.6324 25.8349 92.8466 25.3934 93.0706 24.932C93.7557 23.5208 94.4696 22.0416 95.2121 20.5007C95.9546 18.9597 96.6621 17.4806 97.3313 16.0693C97.5981 15.5067 97.8518 14.9711 98.0924 14.4629C98.4554 13.6963 98.7889 12.992 99.0936 12.3513C99.6003 11.286 99.9573 10.5356 100.164 10.1033C100.582 9.17993 100.805 8.51909 100.834 8.11456C100.862 7.71002 100.805 7.5093 100.655 7.5093H108.463C108.342 7.5093 108.3 7.71002 108.329 8.11456C108.358 8.51909 108.568 9.17993 108.954 10.1033C109.161 10.5356 109.505 11.2767 109.98 12.3297C110.455 13.3827 111.028 14.6149 111.697 16.0261C112.367 17.4373 113.058 18.9011 113.772 20.4142C114.486 21.9273 115.184 23.3911 115.869 24.8023C116.551 26.2135 117.147 27.4549 117.654 28.5203C118.16 29.5857 118.53 30.3515 118.769 30.8116C119.244 31.7627 119.684 32.439 120.085 32.8435C120.487 33.2481 120.793 33.4488 121 33.4488H112.746C113.042 33.3901 113.288 33.1616 113.482 32.7571C113.677 32.3525 113.638 31.7041 113.371 30.8116C113.31 30.58 113.208 30.2496 113.058 29.8173C112.908 29.3849 112.775 29.0669 112.657 28.8662C112.478 28.4616 112.3 28.1744 112.121 28.0015C111.943 27.8286 111.713 27.7143 111.43 27.6556C111.146 27.597 110.754 27.5692 110.247 27.5692H98.826C98.2619 27.5692 97.8157 27.5908 97.4875 27.634C97.1592 27.6773 96.9139 27.7853 96.7513 27.9583C96.5888 28.1312 96.4327 28.4184 96.2829 28.8229C96.2239 28.9958 96.1642 29.1687 96.1044 29.3417C96.0447 29.5146 95.9849 29.6876 95.9259 29.8605C95.8049 30.2064 95.7188 30.5244 95.6583 30.8116C95.3906 31.7627 95.3173 32.439 95.4352 32.8435C95.5531 33.2481 95.7188 33.4488 95.9259 33.4488H88.4306ZM99.986 24.1106H108.954C109.817 24.1106 110.292 24.0396 110.381 23.8944C110.471 23.7493 110.426 23.4343 110.247 22.9433C109.862 22.02 109.416 21.0195 108.909 19.9386C108.402 18.8578 107.889 17.777 107.37 16.6962C106.85 15.6154 106.344 14.5778 105.853 13.5835C105.362 12.5891 104.938 11.7183 104.581 10.9679H104.492C103.868 12.2371 103.227 13.5557 102.574 14.9237C101.92 16.2917 101.302 17.5763 100.722 18.7714C100.142 19.9664 99.4952 21.3159 98.7813 22.8136C98.5742 23.2737 98.5073 23.6072 98.5806 23.808C98.6539 24.0087 99.1223 24.1106 99.986 24.1106ZM0.624616 32.8435C0.417473 33.2481 0.207143 33.4488 0 33.4488H24.2198L24.4046 32.544L25.2969 28.2177C24.9687 28.5913 24.2772 28.9742 23.2223 29.3633C22.1675 29.7524 20.7748 29.947 19.0508 29.947H7.76308C6.87077 29.947 6.34176 29.8821 6.17923 29.7524C6.01671 29.6227 5.93385 29.2398 5.93385 28.6068V10.1465C5.93385 9.19537 6.03901 8.51909 6.24616 8.11456C6.4533 7.71002 6.66363 7.5093 6.87077 7.5093H0C0.207143 7.53709 0.417473 7.74708 0.624616 8.13617C0.831759 8.52526 0.936924 9.17993 0.936924 10.1033V30.8548C0.936924 31.7782 0.831759 32.439 0.624616 32.8435ZM82.0476 19.8311C83.9501 20.4642 85.3204 21.3165 86.1522 22.3818L86.149 22.3849C86.9807 23.4503 87.3982 24.8337 87.3982 26.5352C87.3982 27.6593 87.1242 28.6752 86.5728 29.5831C86.0215 30.491 85.1961 31.2692 84.0967 31.9177C82.9972 32.5662 81.6365 33.0572 80.0144 33.3876C78.3923 33.718 76.5121 33.8848 74.3705 33.8848C71.1295 33.8848 68.2582 33.7396 65.7598 33.4524C63.4398 33.1838 61.7316 32.9182 60.6162 32.6495L59.4722 27.0973C59.8896 27.5605 60.6832 28.0484 61.8591 28.5672C63.035 29.0859 64.6029 29.5245 66.566 29.8858C68.5291 30.2471 70.865 30.4262 73.5706 30.4262C76.0085 30.4262 77.8601 30.2594 79.1253 29.929C80.3904 29.5986 81.2509 29.1354 81.7129 28.5455C82.175 27.9557 82.4045 27.2702 82.4045 26.492C82.4045 25.5687 82.0189 24.8337 81.2445 24.2871C80.4701 23.7406 79.3196 23.299 77.7868 22.9686C76.2539 22.6381 74.3578 22.3417 72.0983 22.0823C69.1537 21.7086 66.7891 21.2115 65.0045 20.5908C63.2199 19.9701 61.926 19.1425 61.1229 18.1049C60.3199 17.0673 59.9183 15.7549 59.9183 14.1707C59.9183 12.8151 60.3422 11.6046 61.1899 10.5392C62.0375 9.47384 63.325 8.63081 65.0491 8.01011C66.7732 7.38942 68.9752 7.08061 71.6522 7.08061C74.7466 7.08061 77.4362 7.22575 79.7276 7.51294C81.5154 7.73837 82.8889 7.96379 83.8609 8.18613C84.3962 8.30347 84.9762 8.49185 84.9762 8.49185L85.9291 13.1301C85.3045 12.7564 84.3452 12.3673 83.0514 11.9628C81.7576 11.5583 80.2024 11.2217 78.3891 10.9468C76.5758 10.672 74.5522 10.5361 72.3214 10.5361C70.4762 10.5361 69.0135 10.6658 67.9268 10.9252C66.8401 11.1846 66.0689 11.5675 65.6068 12.0709C65.1447 12.5742 64.9152 13.1887 64.9152 13.9083C64.9152 14.8594 65.2785 15.6221 66.0083 16.1996C66.7381 16.777 67.8089 17.2217 69.2206 17.5398C70.6324 17.8579 72.3501 18.1296 74.3737 18.3612C77.586 18.7071 80.145 19.1981 82.0476 19.8311Z" fill="#F4F2EB"/>
</svg>
