<svg width="281" height="66" viewBox="0 0 281 66" fill="none" xmlns="http://www.w3.org/2000/svg">
<path d="M2.67693 61.9036C2.67693 61.4708 2.73982 61.0695 2.86559 60.6996C2.99136 60.326 3.17261 60.0023 3.40935 59.7286C3.6424 59.4548 3.92723 59.2403 4.26384 59.0849C4.60046 58.9259 4.97962 58.8463 5.40131 58.8463C5.82671 58.8463 6.20771 58.9259 6.54433 59.0849C6.88465 59.2403 7.17318 59.4548 7.40992 59.7286C7.64296 60.0023 7.82237 60.326 7.94813 60.6996C8.0739 61.0695 8.13679 61.4708 8.13679 61.9036V62.0257C8.13679 62.4585 8.0739 62.8599 7.94813 63.2298C7.82237 63.5997 7.64296 63.9215 7.40992 64.1952C7.17318 64.469 6.8865 64.6835 6.54988 64.8389C6.21326 64.9942 5.83411 65.0719 5.41241 65.0719C4.98701 65.0719 4.60416 64.9942 4.26384 64.8389C3.92723 64.6835 3.6424 64.469 3.40935 64.1952C3.17261 63.9215 2.99136 63.5997 2.86559 63.2298C2.73982 62.8599 2.67693 62.4585 2.67693 62.0257V61.9036ZM3.70343 62.0257C3.70343 62.3216 3.73857 62.6046 3.80885 62.8747C3.87914 63.141 3.98641 63.3759 4.13068 63.5793C4.27124 63.7828 4.4488 63.9437 4.66334 64.0621C4.87789 64.1804 5.12758 64.2396 5.41241 64.2396C5.69354 64.2396 5.93953 64.1804 6.15038 64.0621C6.36492 63.9437 6.54433 63.7828 6.6886 63.5793C6.82916 63.3759 6.93458 63.141 7.00487 62.8747C7.07515 62.6046 7.11029 62.3216 7.11029 62.0257V61.9036C7.11029 61.6114 7.0733 61.3321 6.99932 61.0658C6.92904 60.7958 6.82361 60.559 6.68305 60.3556C6.53878 60.1521 6.35938 59.9912 6.14483 59.8728C5.93398 59.7508 5.68614 59.6897 5.40131 59.6897C5.11648 59.6897 4.86864 59.7508 4.6578 59.8728C4.44695 59.9912 4.27124 60.1521 4.13068 60.3556C3.98641 60.559 3.87914 60.7958 3.80885 61.0658C3.73857 61.3321 3.70343 61.6114 3.70343 61.9036V62.0257ZM12.6365 59.3013C13.0286 59.3013 13.3782 59.3716 13.6852 59.5122C13.9922 59.649 14.253 59.8377 14.4676 60.0781C14.6821 60.3223 14.8449 60.6108 14.9558 60.9437C15.0705 61.2729 15.1278 61.6318 15.1278 62.0202V62.1478C15.1278 62.5658 15.0668 62.9523 14.9447 63.3074C14.8264 63.6626 14.6525 63.9714 14.4232 64.2341C14.1938 64.4967 13.9127 64.702 13.5798 64.85C13.2506 64.9979 12.8751 65.0719 12.4534 65.0719C12.0317 65.0719 11.6544 64.9979 11.3215 64.85C10.9886 64.702 10.7074 64.4967 10.4781 64.2341C10.2487 63.9714 10.073 63.6626 9.95097 63.3074C9.8289 62.9523 9.76786 62.5658 9.76786 62.1478V61.5985C9.76786 61.2508 9.78451 60.9252 9.8178 60.6219C9.85479 60.3149 9.90658 60.0319 9.97316 59.773C10.036 59.5325 10.1119 59.3087 10.2007 59.1016C10.2894 58.8944 10.3912 58.7039 10.5058 58.5301C10.7389 58.175 11.0219 57.892 11.3548 57.6811C11.6914 57.4666 12.065 57.3205 12.4756 57.2428C12.6716 57.2058 12.8529 57.167 13.0194 57.1263C13.1895 57.0819 13.3375 57.0264 13.4633 56.9598C13.5853 56.8969 13.6815 56.8174 13.7518 56.7212C13.8221 56.6213 13.8572 56.4956 13.8572 56.3439H14.7006C14.7006 56.6879 14.647 56.9654 14.5397 57.1762C14.4361 57.3871 14.29 57.5554 14.1013 57.6811C13.9349 57.7921 13.7499 57.8753 13.5465 57.9308C13.3467 57.9863 13.0638 58.0529 12.6975 58.1306C12.4386 58.1861 12.1963 58.2637 11.9707 58.3636C11.745 58.4598 11.5434 58.5911 11.3659 58.7576C11.1883 58.924 11.0385 59.1293 10.9164 59.3735C10.7944 59.6139 10.7056 59.9043 10.6501 60.2446C10.7685 60.1077 10.8998 59.982 11.044 59.8673C11.1883 59.7489 11.3437 59.6472 11.5101 59.5621C11.6766 59.4807 11.8542 59.4179 12.0428 59.3735C12.2315 59.3254 12.4294 59.3013 12.6365 59.3013ZM12.4423 60.1447C12.1612 60.1447 11.917 60.1965 11.7099 60.3001C11.5027 60.4 11.3326 60.535 11.1994 60.7051C11.0625 60.879 10.9608 61.0787 10.8942 61.3044C10.8277 61.53 10.7944 61.7686 10.7944 62.0202V62.1478C10.7944 62.4289 10.8277 62.6971 10.8942 62.9523C10.9608 63.2039 11.0625 63.424 11.1994 63.6126C11.3326 63.805 11.5027 63.9585 11.7099 64.0732C11.9207 64.1841 12.1686 64.2396 12.4534 64.2396C12.7345 64.2396 12.9768 64.1841 13.1803 64.0732C13.3874 63.9585 13.5594 63.805 13.6963 63.6126C13.8332 63.424 13.9349 63.2039 14.0015 62.9523C14.0681 62.6971 14.1013 62.4289 14.1013 62.1478V62.0202C14.1013 61.7686 14.0681 61.53 14.0015 61.3044C13.9349 61.0787 13.8332 60.879 13.6963 60.7051C13.5594 60.535 13.3856 60.4 13.1747 60.3001C12.9676 60.1965 12.7234 60.1447 12.4423 60.1447ZM18.085 64.9609V59.8007H16.4205V58.9573H19.1115V61.2323H20.2213C20.5764 61.2323 20.8927 61.2785 21.1701 61.371C21.4475 61.4634 21.6806 61.5911 21.8692 61.7538C22.0579 61.9166 22.2003 62.1108 22.2965 62.3364C22.3963 62.5621 22.4463 62.8081 22.4463 63.0744C22.4463 63.3407 22.3963 63.5886 22.2965 63.8179C22.2003 64.0473 22.0579 64.2452 21.8692 64.4116C21.6806 64.5818 21.4475 64.7168 21.1701 64.8167C20.8927 64.9128 20.5764 64.9609 20.2213 64.9609H18.085ZM19.1115 62.0701V64.1231H20.2213C20.4358 64.1231 20.6171 64.0954 20.765 64.0399C20.9167 63.9844 21.0406 63.9085 21.1368 63.8124C21.233 63.7199 21.3033 63.6126 21.3476 63.4905C21.392 63.3685 21.4142 63.2427 21.4142 63.1132C21.4142 62.9875 21.392 62.8636 21.3476 62.7415C21.3033 62.6157 21.233 62.5029 21.1368 62.403C21.0406 62.3068 20.9167 62.2273 20.765 62.1644C20.6134 62.1015 20.4321 62.0701 20.2213 62.0701H19.1115ZM29.0212 58.9573V64.9609H27.9947V62.625H26.1303L24.7043 64.9609H23.5946L25.1094 62.4696C24.7247 62.329 24.4288 62.1126 24.2216 61.8204C24.0145 61.5245 23.9109 61.1805 23.9109 60.7884C23.9109 60.522 23.9627 60.2779 24.0662 60.0559C24.1735 59.8303 24.3252 59.6361 24.5212 59.4733C24.7173 59.3143 24.9577 59.1885 25.2426 59.096C25.5274 59.0036 25.8474 58.9573 26.2025 58.9573H29.0212ZM24.9429 60.7995C24.9429 60.9252 24.9651 61.0473 25.0095 61.1657C25.0539 61.284 25.1242 61.3876 25.2204 61.4764C25.3128 61.5689 25.4294 61.6429 25.5699 61.6983C25.7105 61.7538 25.8788 61.7816 26.0749 61.7816H27.9947V59.7896H26.2025C25.9916 59.7896 25.8067 59.8192 25.6476 59.8784C25.4885 59.9339 25.3572 60.0079 25.2537 60.1003C25.1501 60.1965 25.0724 60.3056 25.0206 60.4277C24.9688 60.5461 24.9429 60.67 24.9429 60.7995ZM36.5726 59.7896H34.1756V64.9609H33.1436V59.7896H30.7854V58.9573H36.5726V59.7896ZM42.1322 58.9573H43.1586V64.9609H42.1322V60.5331L39.1969 64.9609H38.176V58.9573H39.1969V63.3907L42.1322 58.9573ZM50.1774 58.9573V64.9609H49.151V62.625H47.2866L45.8606 64.9609H44.7509L46.2657 62.4696C45.881 62.329 45.585 62.1126 45.3779 61.8204C45.1707 61.5245 45.0672 61.1805 45.0672 60.7884C45.0672 60.522 45.1189 60.2779 45.2225 60.0559C45.3298 59.8303 45.4815 59.6361 45.6775 59.4733C45.8736 59.3143 46.114 59.1885 46.3988 59.096C46.6837 59.0036 47.0036 58.9573 47.3587 58.9573H50.1774ZM46.0992 60.7995C46.0992 60.9252 46.1214 61.0473 46.1658 61.1657C46.2102 61.284 46.2805 61.3876 46.3766 61.4764C46.4691 61.5689 46.5856 61.6429 46.7262 61.6983C46.8668 61.7538 47.0351 61.7816 47.2311 61.7816H49.151V59.7896H47.3587C47.1479 59.7896 46.9629 59.8192 46.8039 59.8784C46.6448 59.9339 46.5135 60.0079 46.4099 60.1003C46.3064 60.1965 46.2287 60.3056 46.1769 60.4277C46.1251 60.5461 46.0992 60.67 46.0992 60.7995ZM59.3267 64.9609V58.9573H61.6849C62.0548 58.9573 62.3914 58.9906 62.6947 59.0572C62.998 59.1238 63.2588 59.2237 63.4771 59.3568C63.6916 59.49 63.8562 59.6601 63.9709 59.8673C64.0893 60.0744 64.1485 60.3204 64.1485 60.6053C64.1485 60.7865 64.1133 60.9567 64.043 61.1157C63.9765 61.2711 63.8766 61.408 63.7434 61.5263C63.6694 61.5966 63.5844 61.6595 63.4882 61.715C63.392 61.7705 63.2866 61.8204 63.1719 61.8648L63.2163 61.8759C63.4012 61.924 63.5622 61.9924 63.699 62.0812C63.8396 62.1663 63.9598 62.268 64.0597 62.3864C64.1596 62.5084 64.2354 62.6435 64.2872 62.7914C64.339 62.9394 64.3649 63.0947 64.3649 63.2575C64.3649 63.5423 64.3112 63.792 64.2039 64.0066C64.0967 64.2174 63.9432 64.3931 63.7434 64.5337C63.5437 64.678 63.3014 64.7852 63.0165 64.8555C62.7354 64.9258 62.4191 64.9609 62.0677 64.9609H59.3267ZM60.3587 62.3253V64.1342H62.0677C62.286 64.1342 62.4765 64.112 62.6392 64.0676C62.8057 64.0232 62.9426 63.9585 63.0498 63.8734C63.1423 63.7994 63.2126 63.7088 63.2607 63.6015C63.3088 63.4905 63.3328 63.3648 63.3328 63.2242C63.3328 63.08 63.3051 62.9523 63.2496 62.8414C63.1978 62.7304 63.1201 62.6379 63.0165 62.5639C62.9093 62.4862 62.7761 62.4271 62.617 62.3864C62.458 62.3457 62.2749 62.3253 62.0677 62.3253H60.3587ZM60.3587 61.5041H61.696C61.9734 61.5041 62.212 61.4801 62.4117 61.432C62.6115 61.3839 62.7706 61.3081 62.8889 61.2045C62.9629 61.1379 63.0202 61.0602 63.0609 60.9715C63.1016 60.879 63.122 60.7754 63.122 60.6607C63.122 60.5091 63.0887 60.3778 63.0221 60.2668C62.9592 60.1558 62.8649 60.0652 62.7391 59.9949C62.6207 59.9246 62.4709 59.8728 62.2897 59.8395C62.1121 59.8063 61.9105 59.7896 61.6849 59.7896H60.3587V61.5041ZM66.1457 61.9036C66.1457 61.4708 66.2086 61.0695 66.3344 60.6996C66.4602 60.326 66.6414 60.0023 66.8782 59.7286C67.1112 59.4548 67.396 59.2403 67.7327 59.0849C68.0693 58.9259 68.4484 58.8463 68.8701 58.8463C69.2955 58.8463 69.6765 58.9259 70.0131 59.0849C70.3535 59.2403 70.642 59.4548 70.8787 59.7286C71.1118 60.0023 71.2912 60.326 71.4169 60.6996C71.5427 61.0695 71.6056 61.4708 71.6056 61.9036V62.0257C71.6056 62.4585 71.5427 62.8599 71.4169 63.2298C71.2912 63.5997 71.1118 63.9215 70.8787 64.1952C70.642 64.469 70.3553 64.6835 70.0187 64.8389C69.6821 64.9942 69.3029 65.0719 68.8812 65.0719C68.4558 65.0719 68.073 64.9942 67.7327 64.8389C67.396 64.6835 67.1112 64.469 66.8782 64.1952C66.6414 63.9215 66.4602 63.5997 66.3344 63.2298C66.2086 62.8599 66.1457 62.4585 66.1457 62.0257V61.9036ZM67.1722 62.0257C67.1722 62.3216 67.2074 62.6046 67.2777 62.8747C67.348 63.141 67.4552 63.3759 67.5995 63.5793C67.7401 63.7828 67.9176 63.9437 68.1322 64.0621C68.3467 64.1804 68.5964 64.2396 68.8812 64.2396C69.1624 64.2396 69.4083 64.1804 69.6192 64.0621C69.8337 63.9437 70.0131 63.7828 70.1574 63.5793C70.298 63.3759 70.4034 63.141 70.4737 62.8747C70.544 62.6046 70.5791 62.3216 70.5791 62.0257V61.9036C70.5791 61.6114 70.5421 61.3321 70.4681 61.0658C70.3979 60.7958 70.2924 60.559 70.1519 60.3556C70.0076 60.1521 69.8282 59.9912 69.6136 59.8728C69.4028 59.7508 69.155 59.6897 68.8701 59.6897C68.5853 59.6897 68.3375 59.7508 68.1266 59.8728C67.9158 59.9912 67.7401 60.1521 67.5995 60.3556C67.4552 60.559 67.348 60.7958 67.2777 61.0658C67.2074 61.3321 67.1722 61.6114 67.1722 61.9036V62.0257ZM78.4136 58.9573V64.9609H77.3815V59.8063H75.1732L75.1676 61.5263C75.1676 61.7298 75.1621 61.9277 75.151 62.12C75.1436 62.3087 75.1306 62.4881 75.1121 62.6583C75.0825 62.9394 75.0363 63.1983 74.9734 63.4351C74.9105 63.6718 74.831 63.8808 74.7348 64.0621C74.5794 64.3543 74.3704 64.5781 74.1078 64.7334C73.8452 64.8851 73.5178 64.9609 73.1257 64.9609H72.8261L72.8427 64.0454L73.0702 64.0399C73.2811 64.0399 73.4549 63.9881 73.5918 63.8845C73.7324 63.7772 73.8433 63.6182 73.9247 63.4073C73.9654 63.2926 74.0005 63.1613 74.0301 63.0134C74.0597 62.8617 74.0838 62.6952 74.1023 62.514C74.1134 62.3697 74.1208 62.2162 74.1245 62.0535C74.1319 61.887 74.1356 61.7113 74.1356 61.5263L74.1467 58.9573H78.4136ZM81.3153 58.9573V64.1231H82.4694V58.9573H83.4959V64.1231H84.65V58.9573H85.6765V64.9609H80.2888V58.9573H81.3153ZM90.2428 65.0719C89.8211 65.0719 89.4327 64.9998 89.0776 64.8555C88.7262 64.7112 88.4247 64.5096 88.1732 64.2507C87.9216 63.9918 87.7256 63.6848 87.585 63.3296C87.4444 62.9745 87.3741 62.588 87.3741 62.17V61.9369C87.3741 61.4524 87.4518 61.0196 87.6072 60.6386C87.7626 60.2538 87.9697 59.9283 88.2286 59.662C88.4839 59.3994 88.7743 59.1978 89.0998 59.0572C89.429 58.9166 89.7656 58.8463 90.1096 58.8463C90.5424 58.8463 90.9197 58.9222 91.2415 59.0738C91.5671 59.2218 91.8371 59.4271 92.0516 59.6897C92.2662 59.9561 92.4253 60.2686 92.5288 60.6275C92.6361 60.9863 92.6897 61.3747 92.6897 61.7927V62.2532H88.4006V62.292C88.4265 62.5843 88.4839 62.8414 88.5727 63.0633C88.6651 63.2853 88.7909 63.4813 88.95 63.6515C89.1127 63.8327 89.3088 63.9751 89.5381 64.0787C89.7675 64.1823 90.0208 64.2341 90.2983 64.2341C90.6645 64.2341 90.99 64.1601 91.2748 64.0121C91.5597 63.8642 91.7964 63.6681 91.9851 63.424L92.6121 63.9122C92.4123 64.2156 92.1127 64.4856 91.7132 64.7223C91.3174 64.9554 90.8272 65.0719 90.2428 65.0719ZM90.1096 59.6897C89.9025 59.6897 89.7064 59.7286 89.5215 59.8063C89.3365 59.8802 89.1701 59.9894 89.0221 60.1336C88.8741 60.2816 88.7484 60.4628 88.6448 60.6774C88.5449 60.8882 88.4746 61.1324 88.4339 61.4098H91.6632V61.3599C91.6632 61.1749 91.6281 60.977 91.5578 60.7662C91.4875 60.5516 91.3895 60.3667 91.2637 60.2113C91.138 60.0559 90.9789 59.9302 90.7866 59.834C90.5979 59.7378 90.3723 59.6897 90.1096 59.6897ZM97.2616 59.3013C97.6537 59.3013 98.0033 59.3716 98.3103 59.5122C98.6173 59.649 98.8781 59.8377 99.0926 60.0781C99.3072 60.3223 99.47 60.6108 99.5809 60.9437C99.6956 61.2729 99.7529 61.6318 99.7529 62.0202V62.1478C99.7529 62.5658 99.6919 62.9523 99.5698 63.3074C99.4515 63.6626 99.2776 63.9714 99.0483 64.2341C98.8189 64.4967 98.5378 64.702 98.2049 64.85C97.8756 64.9979 97.5002 65.0719 97.0785 65.0719C96.6568 65.0719 96.2795 64.9979 95.9466 64.85C95.6137 64.702 95.3325 64.4967 95.1032 64.2341C94.8738 63.9714 94.6981 63.6626 94.5761 63.3074C94.454 62.9523 94.393 62.5658 94.393 62.1478V61.5985C94.393 61.2508 94.4096 60.9252 94.4429 60.6219C94.4799 60.3149 94.5317 60.0319 94.5983 59.773C94.6611 59.5325 94.737 59.3087 94.8257 59.1016C94.9145 58.8944 95.0162 58.7039 95.1309 58.5301C95.364 58.175 95.6469 57.892 95.9799 57.6811C96.3165 57.4666 96.6901 57.3205 97.1007 57.2428C97.2967 57.2058 97.478 57.167 97.6445 57.1263C97.8146 57.0819 97.9626 57.0264 98.0883 56.9598C98.2104 56.8969 98.3066 56.8174 98.3769 56.7212C98.4472 56.6213 98.4823 56.4956 98.4823 56.3439H99.3257C99.3257 56.6879 99.272 56.9654 99.1648 57.1762C99.0612 57.3871 98.9151 57.5554 98.7264 57.6811C98.56 57.7921 98.375 57.8753 98.1716 57.9308C97.9718 57.9863 97.6888 58.0529 97.3226 58.1306C97.0637 58.1861 96.8214 58.2637 96.5958 58.3636C96.3701 58.4598 96.1685 58.5911 95.991 58.7576C95.8134 58.924 95.6636 59.1293 95.5415 59.3735C95.4194 59.6139 95.3307 59.9043 95.2752 60.2446C95.3936 60.1077 95.5249 59.982 95.6691 59.8673C95.8134 59.7489 95.9688 59.6472 96.1352 59.5621C96.3017 59.4807 96.4792 59.4179 96.6679 59.3735C96.8565 59.3254 97.0544 59.3013 97.2616 59.3013ZM97.0674 60.1447C96.7863 60.1447 96.5421 60.1965 96.335 60.3001C96.1278 60.4 95.9577 60.535 95.8245 60.7051C95.6876 60.879 95.5859 61.0787 95.5193 61.3044C95.4527 61.53 95.4194 61.7686 95.4194 62.0202V62.1478C95.4194 62.4289 95.4527 62.6971 95.5193 62.9523C95.5859 63.2039 95.6876 63.424 95.8245 63.6126C95.9577 63.805 96.1278 63.9585 96.335 64.0732C96.5458 64.1841 96.7937 64.2396 97.0785 64.2396C97.3596 64.2396 97.6019 64.1841 97.8054 64.0732C98.0125 63.9585 98.1845 63.805 98.3214 63.6126C98.4582 63.424 98.56 63.2039 98.6266 62.9523C98.6931 62.6971 98.7264 62.4289 98.7264 62.1478V62.0202C98.7264 61.7686 98.6931 61.53 98.6266 61.3044C98.56 61.0787 98.4582 60.879 98.3214 60.7051C98.1845 60.535 98.0107 60.4 97.7998 60.3001C97.5927 60.1965 97.3485 60.1447 97.0674 60.1447ZM104.253 64.2396C104.438 64.2396 104.617 64.21 104.791 64.1508C104.968 64.0917 105.126 64.0084 105.263 63.9011C105.399 63.7976 105.508 63.6755 105.59 63.5349C105.675 63.3907 105.719 63.2353 105.723 63.0689H106.694C106.69 63.3352 106.62 63.5904 106.483 63.8346C106.35 64.075 106.171 64.2859 105.945 64.4671C105.719 64.6521 105.46 64.8 105.168 64.911C104.876 65.0183 104.571 65.0719 104.253 65.0719C103.798 65.0719 103.4 64.9905 103.06 64.8278C102.719 64.665 102.436 64.4449 102.211 64.1675C101.981 63.8938 101.809 63.5775 101.695 63.2187C101.58 62.8562 101.523 62.4751 101.523 62.0756V61.8426C101.523 61.4468 101.58 61.0676 101.695 60.7051C101.809 60.3426 101.981 60.0227 102.211 59.7452C102.436 59.4715 102.719 59.2532 103.06 59.0905C103.4 58.9277 103.798 58.8463 104.253 58.8463C104.608 58.8463 104.933 58.9037 105.229 59.0184C105.529 59.1293 105.788 59.281 106.006 59.4733C106.221 59.6694 106.389 59.9006 106.511 60.1669C106.633 60.4333 106.694 60.7181 106.694 61.0214H105.723C105.719 60.8402 105.679 60.67 105.601 60.5109C105.527 60.3482 105.425 60.2058 105.296 60.0837C105.166 59.9616 105.011 59.8654 104.83 59.7952C104.652 59.7249 104.46 59.6897 104.253 59.6897C103.935 59.6897 103.666 59.7545 103.448 59.8839C103.234 60.0097 103.06 60.1743 102.927 60.3778C102.793 60.5849 102.697 60.8161 102.638 61.0713C102.583 61.3266 102.555 61.5837 102.555 61.8426V62.0756C102.555 62.3383 102.583 62.5991 102.638 62.858C102.697 63.1132 102.793 63.3426 102.927 63.546C103.056 63.7532 103.228 63.9215 103.443 64.051C103.661 64.1767 103.931 64.2396 104.253 64.2396ZM114.146 59.7896H111.749V64.9609H110.717V59.7896H108.358V58.9573H114.146V59.7896ZM115.743 64.9609V58.9573H118.102C118.472 58.9573 118.808 58.9906 119.111 59.0572C119.415 59.1238 119.676 59.2237 119.894 59.3568C120.108 59.49 120.273 59.6601 120.388 59.8673C120.506 60.0744 120.565 60.3204 120.565 60.6053C120.565 60.7865 120.53 60.9567 120.46 61.1157C120.393 61.2711 120.293 61.408 120.16 61.5263C120.086 61.5966 120.001 61.6595 119.905 61.715C119.809 61.7705 119.703 61.8204 119.589 61.8648L119.633 61.8759C119.818 61.924 119.979 61.9924 120.116 62.0812C120.256 62.1663 120.377 62.268 120.476 62.3864C120.576 62.5084 120.652 62.6435 120.704 62.7914C120.756 62.9394 120.782 63.0947 120.782 63.2575C120.782 63.5423 120.728 63.792 120.621 64.0066C120.513 64.2174 120.36 64.3931 120.16 64.5337C119.96 64.678 119.718 64.7852 119.433 64.8555C119.152 64.9258 118.836 64.9609 118.484 64.9609H115.743ZM116.775 62.3253V64.1342H118.484C118.703 64.1342 118.893 64.112 119.056 64.0676C119.222 64.0232 119.359 63.9585 119.467 63.8734C119.559 63.7994 119.629 63.7088 119.677 63.6015C119.725 63.4905 119.75 63.3648 119.75 63.2242C119.75 63.08 119.722 62.9523 119.666 62.8414C119.615 62.7304 119.537 62.6379 119.433 62.5639C119.326 62.4862 119.193 62.4271 119.034 62.3864C118.875 62.3457 118.692 62.3253 118.484 62.3253H116.775ZM116.775 61.5041H118.113C118.39 61.5041 118.629 61.4801 118.828 61.432C119.028 61.3839 119.187 61.3081 119.306 61.2045C119.38 61.1379 119.437 61.0602 119.478 60.9715C119.518 60.879 119.539 60.7754 119.539 60.6607C119.539 60.5091 119.505 60.3778 119.439 60.2668C119.376 60.1558 119.282 60.0652 119.156 59.9949C119.037 59.9246 118.888 59.8728 118.706 59.8395C118.529 59.8063 118.327 59.7896 118.102 59.7896H116.775V61.5041ZM126.796 64.9609C126.755 64.8833 126.722 64.7871 126.696 64.6724C126.674 64.554 126.657 64.432 126.646 64.3062C126.543 64.4098 126.426 64.5078 126.297 64.6003C126.171 64.6928 126.032 64.7741 125.881 64.8444C125.725 64.9147 125.561 64.9702 125.387 65.0109C125.213 65.0516 125.028 65.0719 124.832 65.0719C124.514 65.0719 124.225 65.0257 123.966 64.9332C123.711 64.8407 123.495 64.7149 123.317 64.5559C123.136 64.4005 122.995 64.2156 122.895 64.001C122.799 63.7828 122.751 63.5479 122.751 63.2963C122.751 62.9671 122.816 62.6786 122.945 62.4308C123.078 62.1829 123.265 61.9758 123.506 61.8093C123.746 61.6466 124.035 61.5245 124.371 61.4431C124.712 61.3617 125.091 61.321 125.509 61.321H126.63V60.8494C126.63 60.6681 126.596 60.5054 126.53 60.3611C126.463 60.2169 126.369 60.0929 126.247 59.9894C126.125 59.8895 125.975 59.8118 125.797 59.7563C125.623 59.7008 125.427 59.6731 125.209 59.6731C125.006 59.6731 124.823 59.699 124.66 59.7508C124.501 59.8026 124.366 59.871 124.255 59.9561C124.144 60.0411 124.057 60.1429 123.994 60.2612C123.935 60.3759 123.905 60.4961 123.905 60.6219H122.873C122.877 60.4037 122.932 60.1891 123.04 59.9783C123.151 59.7674 123.31 59.5769 123.517 59.4068C123.72 59.2403 123.968 59.1053 124.26 59.0017C124.556 58.8981 124.891 58.8463 125.265 58.8463C125.605 58.8463 125.921 58.8889 126.213 58.974C126.506 59.0553 126.759 59.1793 126.974 59.3457C127.184 59.5159 127.351 59.7267 127.473 59.9783C127.595 60.2298 127.656 60.5239 127.656 60.8605V63.6515C127.656 63.8512 127.675 64.0639 127.712 64.2896C127.749 64.5115 127.8 64.7057 127.867 64.8722V64.9609H126.796ZM124.982 64.1786C125.181 64.1786 125.368 64.1527 125.542 64.1009C125.716 64.0491 125.875 63.9807 126.019 63.8956C126.16 63.8105 126.282 63.7143 126.385 63.6071C126.489 63.4961 126.57 63.3814 126.63 63.2631V62.0479H125.675C125.32 62.0479 125.009 62.0793 124.743 62.1422C124.48 62.2014 124.271 62.2939 124.116 62.4197C124.005 62.5084 123.92 62.6139 123.861 62.7359C123.805 62.858 123.778 62.9967 123.778 63.1521C123.778 63.3 123.802 63.4369 123.85 63.5627C123.902 63.6885 123.977 63.7957 124.077 63.8845C124.177 63.977 124.303 64.0491 124.455 64.1009C124.606 64.1527 124.782 64.1786 124.982 64.1786Z" fill="white"/>
<path fill-rule="evenodd" clip-rule="evenodd" d="M94.8295 3.04873C94.8295 4.73249 93.25 6.09746 91.3015 6.09746C89.353 6.09746 87.7734 4.73249 87.7734 3.04873C87.7734 1.36496 89.353 0 91.3015 0C93.25 0 94.8295 1.36496 94.8295 3.04873ZM51.5478 42.9611C45.2421 42.9611 40.6847 41.4485 37.8796 38.4234C35.0744 35.3982 33.6719 31.1709 33.6719 25.7452C33.6719 22.2604 34.2848 19.2628 35.5145 16.7523C36.7442 14.2418 38.6693 12.2971 41.2898 10.922C43.9103 9.54691 47.3322 8.85938 51.5478 8.85938H53.2529C57.3977 8.85938 60.7608 9.53905 63.3459 10.8945C65.931 12.2499 67.8286 14.1946 69.0387 16.7248C70.2487 19.2549 70.8538 22.2604 70.8538 25.7452C70.8538 31.1709 69.4591 35.3982 66.6736 38.4234C63.8881 41.4485 59.4132 42.9611 53.2529 42.9611H51.5478ZM52.0978 38.5059H52.7029C55.453 38.5059 57.7081 38.1012 59.4682 37.2958C61.2283 36.4904 62.5405 35.1586 63.4009 33.3081C64.2613 31.4577 64.6935 28.9354 64.6935 25.7452C64.6935 22.5551 64.2534 20.1625 63.3734 18.3474C62.4934 16.5323 61.1733 15.2318 59.4132 14.4422C57.6531 13.6525 55.4176 13.2596 52.7029 13.2596H52.0978C49.3477 13.2596 47.0651 13.6643 45.25 14.4697C43.4349 15.2751 42.0794 16.5951 41.1798 18.4299C40.2801 20.2646 39.8322 22.7004 39.8322 25.7452C39.8322 28.79 40.2801 31.4105 41.1798 33.2806C42.0794 35.1507 43.4427 36.4904 45.2775 37.2958C47.1122 38.1012 49.383 38.5059 52.0978 38.5059ZM109.852 42.4001C109.997 42.4001 110.256 42.1448 110.622 41.6301C110.987 41.1154 111.466 40.255 112.052 39.045C112.307 38.4949 112.747 37.5599 113.372 36.2398C113.791 35.353 114.259 34.3581 114.777 33.2562L114.781 33.2463L114.784 33.2396C115.035 32.7062 115.297 32.1478 115.572 31.5646C116.417 29.7691 117.297 27.8872 118.212 25.9268C119.127 23.9663 120 22.0844 120.825 20.289C121.153 19.575 121.465 18.8952 121.761 18.25L121.766 18.2393L121.772 18.2243L121.781 18.2061C122.221 17.2459 122.627 16.3629 122.997 15.5588C123.622 14.2033 124.062 13.2486 124.317 12.6986C124.832 11.5239 125.107 10.6831 125.142 10.1685C125.178 9.65381 125.107 9.39844 124.922 9.39844H134.548C134.399 9.39844 134.347 9.65381 134.383 10.1685C134.418 10.6831 134.677 11.5239 135.153 12.6986C135.408 13.2486 135.833 14.1915 136.418 15.5313C137.003 16.871 137.71 18.4385 138.536 20.234C139.361 22.0294 140.213 23.8917 141.093 25.8168C141.973 27.7419 142.834 29.6041 143.678 31.3996C144.519 33.195 145.254 34.7744 145.878 36.1298C146.503 37.4852 146.959 38.4596 147.253 39.045C147.839 40.255 148.381 41.1154 148.876 41.6301C149.371 42.1448 149.748 42.4001 150.004 42.4001H139.828C140.193 42.3255 140.496 42.0348 140.736 41.5201C140.975 41.0054 140.928 40.1804 140.598 39.045C140.523 38.7503 140.398 38.3299 140.213 37.7799C140.028 37.2299 139.863 36.8252 139.718 36.5698C139.498 36.0552 139.278 35.6898 139.058 35.4698C138.838 35.2498 138.555 35.1044 138.206 35.0298C137.856 34.9551 137.373 34.9197 136.748 34.9197H122.667C121.972 34.9197 121.422 34.9473 121.017 35.0023C120.612 35.0573 120.31 35.1948 120.11 35.4148C119.909 35.6348 119.717 36.0002 119.532 36.5148C119.459 36.7348 119.386 36.9548 119.312 37.1749L119.312 37.1757C119.238 37.3954 119.165 37.6152 119.092 37.8349C118.943 38.2749 118.837 38.6796 118.762 39.045C118.432 40.255 118.342 41.1154 118.487 41.6301C118.632 42.1448 118.837 42.4001 119.092 42.4001H109.852ZM124.097 30.5195H135.153C136.218 30.5195 136.803 30.4292 136.913 30.2445C137.023 30.0599 136.968 29.6591 136.748 29.0344C136.273 27.8597 135.723 26.5868 135.098 25.2117C134.473 23.8367 133.841 22.4616 133.2 21.0865C132.56 19.7115 131.935 18.3914 131.33 17.1263C130.725 15.8613 130.203 14.7534 129.763 13.7987H129.653C128.883 15.4134 128.093 17.091 127.287 18.8314C126.482 20.5719 125.72 22.2062 125.005 23.7267C124.29 25.2471 123.492 26.964 122.612 28.8694C122.357 29.4548 122.274 29.8791 122.365 30.1345C122.455 30.3899 123.033 30.5195 124.097 30.5195ZM1.60598 41.6301C1.35061 42.1448 1.09131 42.4001 0.835938 42.4001H30.6946L30.9225 41.249L32.0225 35.7448C31.6179 36.2202 30.7653 36.7073 29.4649 37.2024C28.1645 37.6974 26.4476 37.9449 24.3221 37.9449H10.4064C9.30637 37.9449 8.6542 37.8624 8.45383 37.6974C8.25346 37.5324 8.15131 37.0452 8.15131 36.2398V12.7536C8.15131 11.5435 8.28096 10.6831 8.53633 10.1685C8.7917 9.65381 9.051 9.39844 9.30637 9.39844H0.835938C1.09131 9.4338 1.35061 9.70095 1.60598 10.196C1.86135 10.691 1.991 11.5239 1.991 12.6986V39.1C1.991 40.2747 1.86135 41.1154 1.60598 41.6301ZM101.988 25.0813C104.333 25.8867 106.023 26.971 107.048 28.3264L107.044 28.3304C108.069 29.6858 108.584 31.4459 108.584 33.6106C108.584 35.0407 108.246 36.3333 107.567 37.4883C106.887 38.6434 105.869 39.6335 104.514 40.4585C103.158 41.2835 101.481 41.9082 99.4811 42.3286C97.4814 42.749 95.1634 42.9611 92.5233 42.9611C88.5277 42.9611 84.9879 42.7765 81.9077 42.4111C79.0476 42.0693 76.9418 41.7314 75.5667 41.3896L74.1562 34.3257C74.6709 34.915 75.6492 35.5357 77.0989 36.1958C78.5486 36.8558 80.4816 37.4137 82.9017 37.8734C85.3218 38.333 88.2016 38.5609 91.5371 38.5609C94.5427 38.5609 96.8253 38.3487 98.385 37.9284C99.9447 37.508 101.005 36.9187 101.575 36.1683C102.145 35.4179 102.428 34.5457 102.428 33.5556C102.428 32.3809 101.952 31.4459 100.998 30.7505C100.043 30.0551 98.6246 29.4933 96.7349 29.0729C94.8452 28.6525 92.5076 28.2754 89.7221 27.9454C86.0919 27.47 83.1767 26.8374 80.9766 26.0478C78.7765 25.2581 77.1814 24.2052 76.1914 22.8851C75.2013 21.565 74.7063 19.8953 74.7063 17.8798C74.7063 16.1551 75.2288 14.615 76.2739 13.2596C77.3189 11.9042 78.9061 10.8316 81.0316 10.0419C83.1571 9.25225 85.8719 8.85938 89.172 8.85938C92.9869 8.85938 96.3027 9.04403 99.1275 9.4094C101.332 9.6962 103.025 9.983 104.223 10.2659C104.883 10.4152 105.598 10.6548 105.598 10.6548L106.773 16.5558C106.003 16.0805 104.82 15.5854 103.225 15.0708C101.63 14.5561 99.7129 14.1279 97.4774 13.7782C95.242 13.4285 92.7472 13.2557 89.9971 13.2557C87.7223 13.2557 85.919 13.4207 84.5793 13.7507C83.2396 14.0807 82.2888 14.5679 81.7191 15.2083C81.1495 15.8487 80.8666 16.6305 80.8666 17.5459C80.8666 18.756 81.3145 19.7264 82.2142 20.461C83.1139 21.1957 84.4339 21.7615 86.1744 22.1661C87.9148 22.5708 90.0324 22.9165 92.5272 23.2112C96.4874 23.6512 99.6422 24.2759 101.988 25.0813Z" fill="white"/>
</svg>
