<svg width="518" height="240" viewBox="0 0 518 240" fill="none" xmlns="http://www.w3.org/2000/svg">
<path d="M175.206 148.422C153.42 148.422 137.674 143.196 127.983 132.744C118.291 122.292 113.445 107.687 113.445 88.9415C113.445 76.9016 115.563 66.5448 119.811 57.8712C124.06 49.1976 130.711 42.4786 139.765 37.7278C148.818 32.977 160.641 30.6016 175.206 30.6016H181.097C195.417 30.6016 207.036 32.9498 215.968 37.6328C224.899 42.3157 231.455 49.0347 235.636 57.7762C239.817 66.5177 241.907 76.9016 241.907 88.9415C241.907 107.687 237.088 122.292 227.465 132.744C217.841 143.196 202.38 148.422 181.097 148.422H175.206ZM177.106 133.029H179.196C188.698 133.029 196.489 131.631 202.57 128.848C208.651 126.066 213.185 121.464 216.158 115.071C219.13 108.678 220.624 99.9633 220.624 88.9415C220.624 77.9196 219.103 69.6532 216.063 63.3821C213.022 57.1111 208.461 52.6182 202.38 49.8898C196.299 47.1615 188.576 45.8041 179.196 45.8041H177.106C167.605 45.8041 159.718 47.2022 153.447 49.9848C147.176 52.7675 142.493 57.3282 139.385 63.6672C136.276 70.0061 134.729 78.4218 134.729 88.9415C134.729 99.4611 136.276 108.515 139.385 114.976C142.493 121.437 147.203 126.066 153.542 128.848C159.881 131.631 167.727 133.029 177.106 133.029Z" fill="white"/>
<path d="M376.625 146.512C377.127 146.512 378.023 145.629 379.285 143.851C380.548 142.073 382.204 139.1 384.226 134.92C385.109 133.019 386.629 129.789 388.787 125.228C390.945 120.667 393.47 115.278 396.388 109.075C399.307 102.872 402.347 96.3702 405.51 89.5969C408.673 82.8236 411.686 76.3218 414.536 70.1186C417.387 63.9154 419.884 58.4587 422.043 53.7758C424.201 49.0929 425.721 45.7944 426.603 43.8941C428.382 39.8356 429.332 36.9308 429.454 35.1526C429.576 33.3745 429.332 32.4922 428.694 32.4922H461.949C461.434 32.4922 461.257 33.3745 461.379 35.1526C461.502 36.9308 462.397 39.8356 464.04 43.8941C464.922 45.7944 466.388 49.0521 468.411 53.6808C470.433 58.3094 472.876 63.7253 475.727 69.9285C478.577 76.1317 481.523 82.5657 484.563 89.2168C487.604 95.868 490.576 102.302 493.495 108.505C496.4 114.708 498.938 120.165 501.096 124.848C503.254 129.531 504.829 132.897 505.847 134.92C507.869 139.1 509.743 142.073 511.453 143.851C513.163 145.629 514.466 146.512 515.349 146.512H480.193C481.455 146.254 482.5 145.249 483.328 143.471C484.156 141.693 483.993 138.842 482.853 134.92C482.595 133.902 482.161 132.449 481.523 130.549C480.885 128.649 480.315 127.25 479.812 126.368C479.052 124.59 478.292 123.328 477.532 122.567C476.772 121.807 475.795 121.305 474.587 121.047C473.379 120.789 471.709 120.667 469.551 120.667H420.903C418.5 120.667 416.6 120.762 415.202 120.952C413.803 121.142 412.758 121.617 412.066 122.377C411.374 123.138 410.709 124.4 410.071 126.178C409.568 127.698 409.053 129.219 408.55 130.739C408.035 132.259 407.668 133.657 407.41 134.92C406.27 139.1 405.958 142.073 406.46 143.851C406.962 145.629 407.668 146.512 408.55 146.512H376.625ZM425.843 105.465H464.04C467.718 105.465 469.741 105.152 470.121 104.514C470.501 103.876 470.311 102.492 469.551 100.334C467.908 96.2752 466.008 91.8773 463.85 87.1265C461.692 82.3757 459.506 77.6249 457.294 72.874C455.081 68.1232 452.923 63.5625 450.833 59.1917C448.742 54.821 446.937 50.9932 445.417 47.6948H445.037C442.376 53.2736 439.648 59.0696 436.865 65.0827C434.083 71.0959 431.449 76.7426 428.979 81.9956C426.508 87.2486 423.753 93.1804 420.712 99.7636C419.83 101.786 419.545 103.252 419.857 104.134C420.169 105.017 422.165 105.465 425.843 105.465Z" fill="white"/>
<path d="M312.556 21.0664C319.288 21.0664 324.746 16.3506 324.746 10.5332C324.746 4.71588 319.288 0 312.556 0C305.824 0 300.367 4.71588 300.367 10.5332C300.367 16.3506 305.824 21.0664 312.556 21.0664Z" fill="white"/>
<path d="M2.66045 143.851C1.77816 145.629 0.882293 146.512 0 146.512H103.16L103.948 142.534L107.748 123.518C106.35 125.16 103.405 126.843 98.9118 128.554C94.4189 130.264 88.4872 131.119 81.1438 131.119H33.0656C29.265 131.119 27.0117 130.834 26.3195 130.264C25.6272 129.694 25.2743 128.011 25.2743 125.228V44.0842C25.2743 39.9034 25.7222 36.9308 26.6045 35.1526C27.4868 33.3745 28.3827 32.4922 29.265 32.4922H0C0.882293 32.6144 1.77816 33.5374 2.66045 35.2477C3.54274 36.9579 3.99068 39.8356 3.99068 43.8941V135.11C3.99068 139.168 3.54274 142.073 2.66045 143.851Z" fill="white"/>
<path d="M366.952 97.8594C363.409 93.1765 357.572 89.4301 349.469 86.6475C341.365 83.8649 330.466 81.7067 316.783 80.1864C308.164 79.1684 300.848 77.9739 294.835 76.5758C288.821 75.1777 284.261 73.2231 281.152 70.6848C278.044 68.1465 276.496 64.7938 276.496 60.6131C276.496 57.4504 277.474 54.7492 279.442 52.5367C281.41 50.3242 284.695 48.6411 289.324 47.5009C293.952 46.3607 300.183 45.7906 308.042 45.7906C317.543 45.7906 326.163 46.3878 333.886 47.5959C341.61 48.8039 348.234 50.2835 353.745 52.0616C359.255 53.8398 363.341 55.5501 366.002 57.1925L361.943 36.8048C361.943 36.8048 359.473 35.9768 357.192 35.461C353.052 34.4836 347.202 33.4928 339.587 32.5019C329.828 31.2395 318.371 30.6016 305.191 30.6016C293.789 30.6016 284.41 31.9589 277.067 34.6873C269.723 37.4156 264.239 41.1212 260.629 45.8041C257.018 50.4871 255.213 55.808 255.213 61.7668C255.213 68.7302 256.923 74.499 260.344 79.0598C263.764 83.6206 269.275 87.2583 276.877 89.9866C284.478 92.715 294.55 94.9003 307.092 96.5427C316.715 97.6829 324.792 98.986 331.321 100.438C337.85 101.891 342.75 103.832 346.048 106.234C349.347 108.637 350.989 111.868 350.989 115.926C350.989 119.347 350.012 122.36 348.044 124.953C346.075 127.545 342.41 129.581 337.022 131.034C331.633 132.486 323.747 133.219 313.363 133.219C301.839 133.219 291.889 132.432 283.528 130.844C275.166 129.255 268.488 127.328 263.479 125.048C258.471 122.767 255.091 120.623 253.312 118.586L258.185 142.992C262.936 144.173 270.212 145.34 280.093 146.521C290.735 147.784 302.965 148.422 316.77 148.422C325.891 148.422 333.9 147.689 340.809 146.236C347.718 144.784 353.514 142.626 358.197 139.775C362.88 136.925 366.395 133.504 368.744 129.513C371.092 125.523 372.259 121.057 372.259 116.116C372.259 108.637 370.481 102.556 366.938 97.873L366.952 97.8594Z" fill="white"/>
<path d="M1.42969 200.543C1.42969 199.629 1.5625 198.781 1.82812 198C2.09375 197.211 2.47656 196.527 2.97656 195.949C3.46875 195.371 4.07031 194.918 4.78125 194.59C5.49219 194.254 6.29297 194.086 7.18359 194.086C8.08203 194.086 8.88672 194.254 9.59766 194.59C10.3164 194.918 10.9258 195.371 11.4258 195.949C11.918 196.527 12.2969 197.211 12.5625 198C12.8281 198.781 12.9609 199.629 12.9609 200.543V200.801C12.9609 201.715 12.8281 202.562 12.5625 203.344C12.2969 204.125 11.918 204.805 11.4258 205.383C10.9258 205.961 10.3203 206.414 9.60938 206.742C8.89844 207.07 8.09766 207.234 7.20703 207.234C6.30859 207.234 5.5 207.07 4.78125 206.742C4.07031 206.414 3.46875 205.961 2.97656 205.383C2.47656 204.805 2.09375 204.125 1.82812 203.344C1.5625 202.562 1.42969 201.715 1.42969 200.801V200.543ZM3.59766 200.801C3.59766 201.426 3.67188 202.023 3.82031 202.594C3.96875 203.156 4.19531 203.652 4.5 204.082C4.79688 204.512 5.17188 204.852 5.625 205.102C6.07812 205.352 6.60547 205.477 7.20703 205.477C7.80078 205.477 8.32031 205.352 8.76562 205.102C9.21875 204.852 9.59766 204.512 9.90234 204.082C10.1992 203.652 10.4219 203.156 10.5703 202.594C10.7188 202.023 10.793 201.426 10.793 200.801V200.543C10.793 199.926 10.7148 199.336 10.5586 198.773C10.4102 198.203 10.1875 197.703 9.89062 197.273C9.58594 196.844 9.20703 196.504 8.75391 196.254C8.30859 195.996 7.78516 195.867 7.18359 195.867C6.58203 195.867 6.05859 195.996 5.61328 196.254C5.16797 196.504 4.79688 196.844 4.5 197.273C4.19531 197.703 3.96875 198.203 3.82031 198.773C3.67188 199.336 3.59766 199.926 3.59766 200.543V200.801ZM22.4644 195.047C23.2925 195.047 24.0308 195.195 24.6792 195.492C25.3277 195.781 25.8784 196.18 26.3316 196.688C26.7847 197.203 27.1284 197.812 27.3628 198.516C27.605 199.211 27.7261 199.969 27.7261 200.789V201.059C27.7261 201.941 27.5972 202.758 27.3394 203.508C27.0894 204.258 26.7222 204.91 26.2378 205.465C25.7534 206.02 25.1597 206.453 24.4566 206.766C23.7612 207.078 22.9683 207.234 22.0777 207.234C21.187 207.234 20.3902 207.078 19.687 206.766C18.9839 206.453 18.3902 206.02 17.9058 205.465C17.4214 204.91 17.0503 204.258 16.7925 203.508C16.5347 202.758 16.4058 201.941 16.4058 201.059V199.898C16.4058 199.164 16.4409 198.477 16.5112 197.836C16.5894 197.188 16.6987 196.59 16.8394 196.043C16.9722 195.535 17.1323 195.062 17.3198 194.625C17.5073 194.188 17.7222 193.785 17.9644 193.418C18.4566 192.668 19.0542 192.07 19.7573 191.625C20.4683 191.172 21.2573 190.863 22.1245 190.699C22.5386 190.621 22.9214 190.539 23.273 190.453C23.6323 190.359 23.9448 190.242 24.2105 190.102C24.4683 189.969 24.6714 189.801 24.8198 189.598C24.9683 189.387 25.0425 189.121 25.0425 188.801H26.8237C26.8237 189.527 26.7105 190.113 26.4839 190.559C26.2652 191.004 25.9566 191.359 25.5581 191.625C25.2066 191.859 24.8159 192.035 24.3862 192.152C23.9644 192.27 23.3667 192.41 22.5933 192.574C22.0464 192.691 21.5347 192.855 21.0581 193.066C20.5816 193.27 20.1558 193.547 19.7808 193.898C19.4058 194.25 19.0894 194.684 18.8316 195.199C18.5737 195.707 18.3862 196.32 18.2691 197.039C18.5191 196.75 18.7964 196.484 19.1011 196.242C19.4058 195.992 19.7339 195.777 20.0855 195.598C20.437 195.426 20.812 195.293 21.2105 195.199C21.6089 195.098 22.0269 195.047 22.4644 195.047ZM22.0542 196.828C21.4605 196.828 20.9448 196.938 20.5073 197.156C20.0698 197.367 19.7105 197.652 19.4292 198.012C19.1402 198.379 18.9253 198.801 18.7847 199.277C18.6441 199.754 18.5737 200.258 18.5737 200.789V201.059C18.5737 201.652 18.6441 202.219 18.7847 202.758C18.9253 203.289 19.1402 203.754 19.4292 204.152C19.7105 204.559 20.0698 204.883 20.5073 205.125C20.9527 205.359 21.4761 205.477 22.0777 205.477C22.6714 205.477 23.1831 205.359 23.6128 205.125C24.0503 204.883 24.4136 204.559 24.7027 204.152C24.9917 203.754 25.2066 203.289 25.3472 202.758C25.4878 202.219 25.5581 201.652 25.5581 201.059V200.789C25.5581 200.258 25.4878 199.754 25.3472 199.277C25.2066 198.801 24.9917 198.379 24.7027 198.012C24.4136 197.652 24.0464 197.367 23.6011 197.156C23.1636 196.938 22.648 196.828 22.0542 196.828ZM33.9717 207V196.102H30.4561V194.32H36.1397V199.125H38.4834C39.2334 199.125 39.9014 199.223 40.4873 199.418C41.0733 199.613 41.5655 199.883 41.9639 200.227C42.3623 200.57 42.6631 200.98 42.8662 201.457C43.0772 201.934 43.1827 202.453 43.1827 203.016C43.1827 203.578 43.0772 204.102 42.8662 204.586C42.6631 205.07 42.3623 205.488 41.9639 205.84C41.5655 206.199 41.0733 206.484 40.4873 206.695C39.9014 206.898 39.2334 207 38.4834 207H33.9717ZM36.1397 200.895V205.23H38.4834C38.9366 205.23 39.3194 205.172 39.6319 205.055C39.9522 204.938 40.2139 204.777 40.417 204.574C40.6202 204.379 40.7686 204.152 40.8623 203.895C40.9561 203.637 41.003 203.371 41.003 203.098C41.003 202.832 40.9561 202.57 40.8623 202.312C40.7686 202.047 40.6202 201.809 40.417 201.598C40.2139 201.395 39.9522 201.227 39.6319 201.094C39.3116 200.961 38.9287 200.895 38.4834 200.895H36.1397ZM57.0689 194.32V207H54.9009V202.066H50.9634L47.9517 207H45.608L48.8072 201.738C47.9947 201.441 47.3697 200.984 46.9322 200.367C46.4947 199.742 46.2759 199.016 46.2759 198.188C46.2759 197.625 46.3853 197.109 46.6041 196.641C46.8306 196.164 47.1509 195.754 47.565 195.41C47.9791 195.074 48.4869 194.809 49.0884 194.613C49.69 194.418 50.3658 194.32 51.1158 194.32H57.0689ZM48.4556 198.211C48.4556 198.477 48.5025 198.734 48.5962 198.984C48.69 199.234 48.8384 199.453 49.0416 199.641C49.2369 199.836 49.483 199.992 49.7798 200.109C50.0767 200.227 50.4322 200.285 50.8462 200.285H54.9009V196.078H51.1158C50.6705 196.078 50.2798 196.141 49.9439 196.266C49.608 196.383 49.3306 196.539 49.1119 196.734C48.8931 196.938 48.7291 197.168 48.6197 197.426C48.5103 197.676 48.4556 197.938 48.4556 198.211ZM73.0177 196.078H67.9552V207H65.7755V196.078H60.795V194.32H73.0177V196.078ZM84.7594 194.32H86.9273V207H84.7594V197.648L78.5602 207H76.4039V194.32H78.5602V203.684L84.7594 194.32ZM101.751 194.32V207H99.5831V202.066H95.6456L92.6339 207H90.2902L93.4894 201.738C92.6769 201.441 92.0519 200.984 91.6144 200.367C91.1769 199.742 90.9581 199.016 90.9581 198.188C90.9581 197.625 91.0675 197.109 91.2862 196.641C91.5128 196.164 91.8331 195.754 92.2472 195.41C92.6612 195.074 93.1691 194.809 93.7706 194.613C94.3722 194.418 95.048 194.32 95.798 194.32H101.751ZM93.1378 198.211C93.1378 198.477 93.1847 198.734 93.2784 198.984C93.3722 199.234 93.5206 199.453 93.7237 199.641C93.9191 199.836 94.1652 199.992 94.462 200.109C94.7589 200.227 95.1144 200.285 95.5284 200.285H99.5831V196.078H95.798C95.3527 196.078 94.962 196.141 94.6261 196.266C94.2902 196.383 94.0128 196.539 93.7941 196.734C93.5753 196.938 93.4112 197.168 93.3019 197.426C93.1925 197.676 93.1378 197.938 93.1378 198.211ZM106.18 236V223.32H111.161C111.942 223.32 112.653 223.391 113.294 223.531C113.934 223.672 114.485 223.883 114.946 224.164C115.399 224.445 115.747 224.805 115.989 225.242C116.239 225.68 116.364 226.199 116.364 226.801C116.364 227.184 116.29 227.543 116.141 227.879C116.001 228.207 115.79 228.496 115.508 228.746C115.352 228.895 115.173 229.027 114.969 229.145C114.766 229.262 114.544 229.367 114.301 229.461L114.395 229.484C114.786 229.586 115.126 229.73 115.415 229.918C115.712 230.098 115.965 230.312 116.176 230.562C116.387 230.82 116.548 231.105 116.657 231.418C116.766 231.73 116.821 232.059 116.821 232.402C116.821 233.004 116.708 233.531 116.481 233.984C116.255 234.43 115.93 234.801 115.508 235.098C115.087 235.402 114.575 235.629 113.973 235.777C113.38 235.926 112.712 236 111.969 236H106.18ZM108.36 230.434V234.254H111.969C112.43 234.254 112.833 234.207 113.176 234.113C113.528 234.02 113.817 233.883 114.044 233.703C114.239 233.547 114.387 233.355 114.489 233.129C114.59 232.895 114.641 232.629 114.641 232.332C114.641 232.027 114.583 231.758 114.465 231.523C114.356 231.289 114.192 231.094 113.973 230.938C113.747 230.773 113.465 230.648 113.13 230.562C112.794 230.477 112.407 230.434 111.969 230.434H108.36ZM108.36 228.699H111.184C111.77 228.699 112.274 228.648 112.696 228.547C113.118 228.445 113.454 228.285 113.704 228.066C113.86 227.926 113.981 227.762 114.067 227.574C114.153 227.379 114.196 227.16 114.196 226.918C114.196 226.598 114.126 226.32 113.985 226.086C113.852 225.852 113.653 225.66 113.387 225.512C113.137 225.363 112.821 225.254 112.438 225.184C112.063 225.113 111.637 225.078 111.161 225.078H108.36V228.699ZM120.582 229.543C120.582 228.629 120.715 227.781 120.981 227C121.246 226.211 121.629 225.527 122.129 224.949C122.621 224.371 123.223 223.918 123.934 223.59C124.645 223.254 125.445 223.086 126.336 223.086C127.235 223.086 128.039 223.254 128.75 223.59C129.469 223.918 130.078 224.371 130.578 224.949C131.07 225.527 131.449 226.211 131.715 227C131.981 227.781 132.113 228.629 132.113 229.543V229.801C132.113 230.715 131.981 231.562 131.715 232.344C131.449 233.125 131.07 233.805 130.578 234.383C130.078 234.961 129.473 235.414 128.762 235.742C128.051 236.07 127.25 236.234 126.36 236.234C125.461 236.234 124.652 236.07 123.934 235.742C123.223 235.414 122.621 234.961 122.129 234.383C121.629 233.805 121.246 233.125 120.981 232.344C120.715 231.562 120.582 230.715 120.582 229.801V229.543ZM122.75 229.801C122.75 230.426 122.824 231.023 122.973 231.594C123.121 232.156 123.348 232.652 123.652 233.082C123.949 233.512 124.324 233.852 124.777 234.102C125.231 234.352 125.758 234.477 126.36 234.477C126.953 234.477 127.473 234.352 127.918 234.102C128.371 233.852 128.75 233.512 129.055 233.082C129.352 232.652 129.574 232.156 129.723 231.594C129.871 231.023 129.945 230.426 129.945 229.801V229.543C129.945 228.926 129.867 228.336 129.711 227.773C129.563 227.203 129.34 226.703 129.043 226.273C128.738 225.844 128.36 225.504 127.906 225.254C127.461 224.996 126.938 224.867 126.336 224.867C125.735 224.867 125.211 224.996 124.766 225.254C124.32 225.504 123.949 225.844 123.652 226.273C123.348 226.703 123.121 227.203 122.973 227.773C122.824 228.336 122.75 228.926 122.75 229.543V229.801ZM146.492 223.32V236H144.312V225.113H139.648L139.636 228.746C139.636 229.176 139.625 229.594 139.601 230C139.586 230.398 139.558 230.777 139.519 231.137C139.457 231.73 139.359 232.277 139.226 232.777C139.093 233.277 138.925 233.719 138.722 234.102C138.394 234.719 137.953 235.191 137.398 235.52C136.843 235.84 136.152 236 135.324 236H134.691L134.726 234.066L135.207 234.055C135.652 234.055 136.019 233.945 136.308 233.727C136.605 233.5 136.84 233.164 137.011 232.719C137.097 232.477 137.172 232.199 137.234 231.887C137.297 231.566 137.347 231.215 137.386 230.832C137.41 230.527 137.425 230.203 137.433 229.859C137.449 229.508 137.457 229.137 137.457 228.746L137.48 223.32H146.492ZM152.62 223.32V234.23H155.058V223.32H157.226V234.23H159.663V223.32H161.831V236H150.452V223.32H152.62ZM171.475 236.234C170.585 236.234 169.764 236.082 169.014 235.777C168.272 235.473 167.635 235.047 167.104 234.5C166.573 233.953 166.159 233.305 165.862 232.555C165.565 231.805 165.417 230.988 165.417 230.105V229.613C165.417 228.59 165.581 227.676 165.909 226.871C166.237 226.059 166.675 225.371 167.221 224.809C167.76 224.254 168.374 223.828 169.061 223.531C169.757 223.234 170.467 223.086 171.194 223.086C172.108 223.086 172.905 223.246 173.585 223.566C174.272 223.879 174.842 224.312 175.296 224.867C175.749 225.43 176.085 226.09 176.303 226.848C176.53 227.605 176.643 228.426 176.643 229.309V230.281H167.585V230.363C167.639 230.98 167.76 231.523 167.948 231.992C168.143 232.461 168.409 232.875 168.745 233.234C169.089 233.617 169.503 233.918 169.987 234.137C170.471 234.355 171.007 234.465 171.592 234.465C172.366 234.465 173.053 234.309 173.655 233.996C174.257 233.684 174.757 233.27 175.155 232.754L176.479 233.785C176.057 234.426 175.425 234.996 174.581 235.496C173.745 235.988 172.71 236.234 171.475 236.234ZM171.194 224.867C170.757 224.867 170.342 224.949 169.952 225.113C169.561 225.27 169.21 225.5 168.897 225.805C168.585 226.117 168.319 226.5 168.1 226.953C167.889 227.398 167.741 227.914 167.655 228.5H174.475V228.395C174.475 228.004 174.401 227.586 174.253 227.141C174.104 226.688 173.897 226.297 173.632 225.969C173.366 225.641 173.03 225.375 172.624 225.172C172.225 224.969 171.749 224.867 171.194 224.867ZM186.299 224.047C187.127 224.047 187.865 224.195 188.514 224.492C189.162 224.781 189.713 225.18 190.166 225.688C190.619 226.203 190.963 226.812 191.197 227.516C191.44 228.211 191.561 228.969 191.561 229.789V230.059C191.561 230.941 191.432 231.758 191.174 232.508C190.924 233.258 190.557 233.91 190.072 234.465C189.588 235.02 188.994 235.453 188.291 235.766C187.596 236.078 186.803 236.234 185.912 236.234C185.022 236.234 184.225 236.078 183.522 235.766C182.819 235.453 182.225 235.02 181.74 234.465C181.256 233.91 180.885 233.258 180.627 232.508C180.369 231.758 180.24 230.941 180.24 230.059V228.898C180.24 228.164 180.276 227.477 180.346 226.836C180.424 226.188 180.533 225.59 180.674 225.043C180.807 224.535 180.967 224.062 181.155 223.625C181.342 223.188 181.557 222.785 181.799 222.418C182.291 221.668 182.889 221.07 183.592 220.625C184.303 220.172 185.092 219.863 185.959 219.699C186.373 219.621 186.756 219.539 187.108 219.453C187.467 219.359 187.78 219.242 188.045 219.102C188.303 218.969 188.506 218.801 188.655 218.598C188.803 218.387 188.877 218.121 188.877 217.801H190.658C190.658 218.527 190.545 219.113 190.319 219.559C190.1 220.004 189.791 220.359 189.393 220.625C189.041 220.859 188.651 221.035 188.221 221.152C187.799 221.27 187.201 221.41 186.428 221.574C185.881 221.691 185.369 221.855 184.893 222.066C184.416 222.27 183.99 222.547 183.615 222.898C183.24 223.25 182.924 223.684 182.666 224.199C182.408 224.707 182.221 225.32 182.104 226.039C182.354 225.75 182.631 225.484 182.936 225.242C183.24 224.992 183.569 224.777 183.92 224.598C184.272 224.426 184.647 224.293 185.045 224.199C185.444 224.098 185.862 224.047 186.299 224.047ZM185.889 225.828C185.295 225.828 184.78 225.938 184.342 226.156C183.905 226.367 183.545 226.652 183.264 227.012C182.975 227.379 182.76 227.801 182.619 228.277C182.479 228.754 182.408 229.258 182.408 229.789V230.059C182.408 230.652 182.479 231.219 182.619 231.758C182.76 232.289 182.975 232.754 183.264 233.152C183.545 233.559 183.905 233.883 184.342 234.125C184.787 234.359 185.311 234.477 185.912 234.477C186.506 234.477 187.018 234.359 187.447 234.125C187.885 233.883 188.248 233.559 188.537 233.152C188.826 232.754 189.041 232.289 189.182 231.758C189.322 231.219 189.393 230.652 189.393 230.059V229.789C189.393 229.258 189.322 228.754 189.182 228.277C189.041 227.801 188.826 227.379 188.537 227.012C188.248 226.652 187.881 226.367 187.436 226.156C186.998 225.938 186.483 225.828 185.889 225.828ZM201.064 234.477C201.455 234.477 201.834 234.414 202.201 234.289C202.576 234.164 202.908 233.988 203.197 233.762C203.486 233.543 203.717 233.285 203.888 232.988C204.068 232.684 204.162 232.355 204.17 232.004H206.22C206.213 232.566 206.064 233.105 205.775 233.621C205.494 234.129 205.115 234.574 204.638 234.957C204.162 235.348 203.615 235.66 202.998 235.895C202.381 236.121 201.736 236.234 201.064 236.234C200.103 236.234 199.263 236.062 198.545 235.719C197.826 235.375 197.228 234.91 196.752 234.324C196.267 233.746 195.904 233.078 195.662 232.32C195.42 231.555 195.299 230.75 195.299 229.906V229.414C195.299 228.578 195.42 227.777 195.662 227.012C195.904 226.246 196.267 225.57 196.752 224.984C197.228 224.406 197.826 223.945 198.545 223.602C199.263 223.258 200.103 223.086 201.064 223.086C201.814 223.086 202.502 223.207 203.127 223.449C203.76 223.684 204.306 224.004 204.767 224.41C205.22 224.824 205.576 225.312 205.834 225.875C206.092 226.438 206.22 227.039 206.22 227.68H204.17C204.162 227.297 204.076 226.938 203.912 226.602C203.756 226.258 203.541 225.957 203.267 225.699C202.994 225.441 202.666 225.238 202.283 225.09C201.908 224.941 201.502 224.867 201.064 224.867C200.392 224.867 199.826 225.004 199.365 225.277C198.912 225.543 198.545 225.891 198.263 226.32C197.982 226.758 197.779 227.246 197.654 227.785C197.537 228.324 197.478 228.867 197.478 229.414V229.906C197.478 230.461 197.537 231.012 197.654 231.559C197.779 232.098 197.982 232.582 198.263 233.012C198.537 233.449 198.9 233.805 199.353 234.078C199.814 234.344 200.385 234.477 201.064 234.477ZM221.958 225.078H216.896V236H214.716V225.078H209.736V223.32H221.958V225.078ZM225.333 236V223.32H230.313C231.095 223.32 231.805 223.391 232.446 223.531C233.087 223.672 233.637 223.883 234.098 224.164C234.552 224.445 234.899 224.805 235.141 225.242C235.391 225.68 235.516 226.199 235.516 226.801C235.516 227.184 235.442 227.543 235.294 227.879C235.153 228.207 234.942 228.496 234.661 228.746C234.505 228.895 234.325 229.027 234.122 229.145C233.919 229.262 233.696 229.367 233.454 229.461L233.548 229.484C233.938 229.586 234.278 229.73 234.567 229.918C234.864 230.098 235.118 230.312 235.329 230.562C235.54 230.82 235.7 231.105 235.809 231.418C235.919 231.73 235.973 232.059 235.973 232.402C235.973 233.004 235.86 233.531 235.634 233.984C235.407 234.43 235.083 234.801 234.661 235.098C234.239 235.402 233.727 235.629 233.126 235.777C232.532 235.926 231.864 236 231.122 236H225.333ZM227.512 230.434V234.254H231.122C231.583 234.254 231.985 234.207 232.329 234.113C232.68 234.02 232.97 233.883 233.196 233.703C233.391 233.547 233.54 233.355 233.641 233.129C233.743 232.895 233.794 232.629 233.794 232.332C233.794 232.027 233.735 231.758 233.618 231.523C233.509 231.289 233.345 231.094 233.126 230.938C232.899 230.773 232.618 230.648 232.282 230.562C231.946 230.477 231.559 230.434 231.122 230.434H227.512ZM227.512 228.699H230.337C230.923 228.699 231.427 228.648 231.848 228.547C232.27 228.445 232.606 228.285 232.856 228.066C233.012 227.926 233.134 227.762 233.22 227.574C233.305 227.379 233.348 227.16 233.348 226.918C233.348 226.598 233.278 226.32 233.137 226.086C233.005 225.852 232.805 225.66 232.54 225.512C232.29 225.363 231.973 225.254 231.591 225.184C231.216 225.113 230.79 225.078 230.313 225.078H227.512V228.699ZM248.676 236C248.59 235.836 248.52 235.633 248.465 235.391C248.418 235.141 248.383 234.883 248.36 234.617C248.141 234.836 247.895 235.043 247.621 235.238C247.356 235.434 247.063 235.605 246.742 235.754C246.414 235.902 246.067 236.02 245.7 236.105C245.332 236.191 244.942 236.234 244.528 236.234C243.856 236.234 243.246 236.137 242.7 235.941C242.16 235.746 241.703 235.48 241.328 235.145C240.946 234.816 240.649 234.426 240.438 233.973C240.235 233.512 240.133 233.016 240.133 232.484C240.133 231.789 240.27 231.18 240.543 230.656C240.825 230.133 241.219 229.695 241.727 229.344C242.235 229 242.844 228.742 243.555 228.57C244.274 228.398 245.075 228.312 245.957 228.312H248.325V227.316C248.325 226.934 248.254 226.59 248.114 226.285C247.973 225.98 247.774 225.719 247.516 225.5C247.258 225.289 246.942 225.125 246.567 225.008C246.2 224.891 245.785 224.832 245.325 224.832C244.895 224.832 244.508 224.887 244.164 224.996C243.828 225.105 243.543 225.25 243.309 225.43C243.075 225.609 242.891 225.824 242.758 226.074C242.633 226.316 242.571 226.57 242.571 226.836H240.391C240.399 226.375 240.516 225.922 240.742 225.477C240.977 225.031 241.313 224.629 241.75 224.27C242.18 223.918 242.703 223.633 243.321 223.414C243.946 223.195 244.653 223.086 245.442 223.086C246.16 223.086 246.828 223.176 247.446 223.355C248.063 223.527 248.598 223.789 249.051 224.141C249.496 224.5 249.848 224.945 250.106 225.477C250.364 226.008 250.492 226.629 250.492 227.34V233.234C250.492 233.656 250.532 234.105 250.61 234.582C250.688 235.051 250.797 235.461 250.938 235.812V236H248.676ZM244.844 234.348C245.266 234.348 245.66 234.293 246.028 234.184C246.395 234.074 246.731 233.93 247.035 233.75C247.332 233.57 247.59 233.367 247.809 233.141C248.028 232.906 248.2 232.664 248.325 232.414V229.848H246.309C245.559 229.848 244.903 229.914 244.34 230.047C243.785 230.172 243.344 230.367 243.016 230.633C242.782 230.82 242.602 231.043 242.477 231.301C242.36 231.559 242.301 231.852 242.301 232.18C242.301 232.492 242.352 232.781 242.453 233.047C242.563 233.312 242.723 233.539 242.934 233.727C243.145 233.922 243.41 234.074 243.731 234.184C244.051 234.293 244.422 234.348 244.844 234.348Z" fill="white"/>
</svg>
