<svg width="517" height="241" viewBox="0 0 517 241" fill="none" xmlns="http://www.w3.org/2000/svg">
<path d="M57.3646 164.266C57.046 164.591 56.6645 164.897 56.4068 165.246C47.4239 177.525 38.3709 189.783 29.4994 202.097C21.8406 212.731 15.347 223.703 10.0101 234.997C9.45706 236.171 8.89684 237.344 8.31497 238.513C8.1265 238.902 7.92679 239.298 7.63618 239.649C6.86116 240.575 5.34686 241.006 3.7794 240.789C2.23359 240.577 0.915696 239.745 0.768797 238.665C0.657762 237.845 0.72134 236.987 1.00565 236.204C1.94797 233.563 2.88511 230.916 4.07472 228.325C7.86528 220.07 12.4516 212.021 17.969 204.248C25.6928 193.378 33.7271 182.611 41.5138 171.76C47.763 163.052 53.8058 154.274 60.0085 145.546C61.9746 142.776 62.8649 139.788 63.7986 136.81C66.1702 129.217 69.3775 121.794 73.0876 114.488C74.6603 111.39 76.8421 108.438 78.8827 105.464C79.586 104.433 80.5902 103.473 81.6587 102.583C82.404 101.957 83.373 101.38 84.4515 101.003C87.6817 99.8648 91.4815 101.031 92.3688 103.441C92.6628 104.242 92.7342 105.134 92.492 105.912C91.8691 107.922 91.1876 109.94 90.2092 111.877C85.9804 120.28 80.9455 128.466 75.826 136.627C74.7797 138.288 73.5407 139.902 72.716 141.618C71.8589 143.406 71.2534 145.27 70.7991 147.133C68.8578 155.041 67.558 163.021 67.5934 171.116C67.6066 173.443 67.945 175.786 68.1999 178.121C68.2527 178.573 68.5822 179.027 68.7674 179.449C69.1654 179.426 69.3374 179.45 69.3772 179.413C72.5303 176.2 75.6566 172.976 78.8365 169.773C79.9843 168.615 81.1506 167.451 82.5349 166.42C86.1875 163.688 90.2308 163.431 95.2258 165.528C96.3414 165.995 97.3712 166.549 98.445 167.057C100.112 167.851 101.801 167.955 103.55 167.37C105.121 166.847 106.625 166.278 108.004 165.331C107.479 165.015 107.073 164.699 106.574 164.484C103.977 163.338 103.004 161.711 103.181 159.867C103.492 156.596 105.773 154.081 110.161 152.493C115.125 150.697 120.579 152.134 122.258 155.42C122.452 155.804 122.758 156.167 123.111 156.676C123.834 156.455 124.46 156.348 124.913 156.113C127.457 154.808 129.973 153.477 132.483 152.14C134.994 150.802 137.457 149.429 139.985 148.106C140.657 147.754 141.447 147.473 142.247 147.24C145.33 146.344 147.882 146.664 150.443 148.282C151.57 148.992 152.603 149.771 153.56 150.434C155.208 150.523 155.932 149.892 156.576 149.334C158.816 147.391 160.988 145.407 163.125 143.412C165.409 141.283 167.6 139.114 169.878 136.979C170.515 136.383 171.248 135.82 172.013 135.293C174.831 133.352 178.938 134.041 180.446 136.067C180.718 136.438 181.089 136.78 181.462 137.189C182.925 136.711 183.611 135.916 184.331 135.204C187.077 132.497 189.745 129.752 192.406 127.006C194.467 124.878 196.409 122.699 198.519 120.587C199.329 119.779 200.294 118.996 201.436 118.388C204.078 116.985 207.558 117.479 209.389 119.512C210.111 120.313 210.504 121.231 210.967 122.115C211.584 123.313 212.124 124.524 212.802 125.941C213.574 125.666 214.205 125.565 214.533 125.307C216.214 124.002 217.843 122.67 219.44 121.32C221.266 119.776 222.979 118.183 224.857 116.665C225.784 115.914 226.831 115.179 228.034 114.629C230.73 113.393 233.782 113.763 235.922 115.563C236.798 116.303 237.379 117.188 238.093 118.007C238.414 118.373 238.734 118.74 239.003 119.044C240.281 119.252 240.79 118.714 241.347 118.316C244.13 116.328 246.325 114.06 248.427 111.751C250.082 109.933 251.636 108.074 253.356 106.286C254.209 105.398 255.177 104.521 256.349 103.809C258.651 102.405 261.556 102.537 263.963 104.056C264.99 104.704 265.912 105.429 266.749 106.025C268.597 106.073 269.689 105.489 270.754 104.943C276.605 101.936 281.344 98.3078 284.82 94.0093C285.452 93.2278 285.722 92.316 286.127 91.459C286.567 90.5199 286.887 89.5491 287.412 88.6337C287.757 88.034 288.277 87.4529 288.907 86.9614C290.062 86.0551 291.829 85.8402 293.416 86.2967C294.99 86.7501 296.026 87.7706 295.905 88.9708C295.833 89.7059 295.513 90.4263 295.235 91.1411C294.431 93.2216 293.934 95.3401 294.067 97.5227C294.128 98.598 294.413 99.6876 294.699 100.757C294.798 101.14 295.208 101.501 295.595 102.022C296.559 101.76 297.469 101.656 298.075 101.324C299.695 100.441 301.311 99.5315 302.705 98.4978C307.048 95.2625 311.228 91.9309 314.855 88.3269C317.871 85.3336 321.409 82.611 325.544 80.0759C325.102 79.4472 324.685 78.8341 324.238 78.2345C323.154 76.7677 321.978 75.3306 320.982 73.8433C317.06 67.9726 316.636 62.0747 319.065 56.1724C319.818 54.3509 320.581 52.5418 322.035 50.8905C323.61 49.0907 325.704 47.6211 328.273 46.4217C331.687 44.8337 335.61 44.3297 339.902 44.6537C343.13 44.8971 346.361 45.1314 349.583 45.4038C351.92 45.6004 354.182 45.6254 356.48 45.2675C358.991 44.8766 361.63 45.1403 364.176 45.5985C367.258 46.1504 369.259 47.4795 369.677 49.5351C369.912 50.6838 369.762 51.8623 369.654 53.0153C369.493 54.7524 369.139 56.477 369.002 58.2143C368.842 60.2171 369.23 62.2159 370.017 64.1927C370.345 65.0065 370.63 65.8457 371.826 66.5961C372.425 66.4783 373.272 66.4605 373.782 66.1876C375.602 65.2085 377.405 64.2001 379.038 63.0894C380.501 62.0961 381.714 60.9522 383.058 59.8875C383.768 59.3235 384.444 58.7271 385.288 58.2529C387.961 56.7462 391.115 57.0484 393.355 58.9812C393.893 59.4459 394.329 59.9631 394.989 60.635C395.673 59.97 396.206 59.447 396.748 58.921C397.867 57.8465 398.907 56.7346 400.129 55.713C401.21 54.8106 402.637 54.1299 404.411 53.8112C406.195 53.485 407.987 53.571 409.693 54.189C410.607 54.5215 411.475 54.9237 412.59 55.3909C413.154 54.8697 413.747 54.39 414.221 53.8588C416.17 51.6811 418.043 49.4766 420.019 47.3098C420.911 46.3354 421.882 45.3785 422.99 44.5069C423.937 43.7651 425.024 43.0642 426.226 42.4989C429.465 40.9671 432.874 41.1207 436.192 42.8564C436.79 43.169 437.345 43.5071 438.123 43.9497C438.953 43.167 439.608 42.4956 440.355 41.8648C441.184 41.1569 441.957 40.3965 442.974 39.8202C446.12 38.0326 449.994 38.2991 452.891 40.4825C453.753 41.1289 454.387 41.8953 455.115 42.6121C455.544 43.0376 455.952 43.4735 456.487 44.0176C457.219 43.814 457.87 43.6325 458.683 43.4069C458.574 42.957 458.548 42.5507 458.367 42.175C457.793 41.0215 458.099 39.9925 459.253 39.1611C460.408 38.3251 460.779 37.3105 460.992 36.2409C461.349 34.437 461.706 32.6331 461.947 30.8235C462.571 26.1142 463.509 21.4492 465.254 16.8927C466.814 12.8061 469.164 8.93936 472.24 5.29333C473.139 4.23044 474.192 3.19652 475.453 2.31878C476.35 1.69091 477.604 1.16726 478.883 0.909448C481.539 0.370353 484.224 1.40535 484.973 3.1986C485.307 3.99867 485.411 4.87282 485.267 5.67742C484.683 8.9583 484.11 12.2469 483.256 15.4931C482.441 18.5779 481.271 21.6089 480.277 24.669C480.021 25.4588 479.84 26.26 479.645 27.003C480.503 27.4082 480.719 27.0104 480.965 26.7945C482.099 25.8285 483.162 24.8267 484.31 23.8639C484.991 23.2935 485.681 22.685 486.554 22.2523C489.019 21.0351 492.762 21.653 494.139 23.5652C494.793 24.4661 494.932 25.5085 495.247 26.4946C495.642 27.7288 495.92 28.9771 496.373 30.2042C496.555 30.7051 497.191 31.1112 498.076 31.1519C500.375 31.255 502.361 30.743 504.148 29.9467C505.867 29.1802 507.026 28.1748 507.047 26.647C506.511 26.2831 505.948 25.9281 505.437 25.5446C503.503 24.1001 503.832 22.4654 506.288 21.5916C508.338 20.8634 510.481 20.962 512.566 21.779C514.739 22.6305 516.028 23.9023 516.554 25.4659C517.044 26.8964 516.906 28.2979 516.279 29.6566C514.025 34.5913 505.425 38.1014 497.326 37.446C493.418 37.1318 490.416 35.9167 488.38 33.6683C487.928 33.1678 487.468 32.6703 486.902 32.0542C486.214 32.478 485.681 32.8057 485.147 33.1333C481.958 35.0716 478.82 37.0363 475.559 38.9236C474.323 39.6367 473.304 40.3977 472.563 41.3705C470.944 43.5011 468.799 45.39 466.125 47.0066C464.378 48.0674 462.464 48.9709 460.202 49.5519C455.866 50.6655 452.036 49.853 449.329 47.2409C448.603 46.5393 447.93 45.8245 447.306 45.1957C446.111 45.1215 445.711 45.5939 445.332 45.9658C444.145 47.1052 443.056 48.2915 441.94 49.4668C441.48 49.9508 441.132 50.4847 440.61 50.93C438.617 52.6173 435.198 52.5568 433.015 50.7817C432.363 50.2518 431.953 49.6052 431.46 49.0005C431.106 48.5666 430.793 48.1117 430.347 47.5121C429.635 47.7952 429.02 47.9297 428.646 48.2024C426.999 49.4152 425.215 50.578 423.864 51.9265C421.415 54.3742 419.162 56.9154 417.64 59.7033C417.598 59.7792 417.555 59.8597 417.506 59.934C415.364 63.2609 411.594 63.6335 407.286 60.9525C407.001 60.7742 406.693 60.6109 406.238 60.3501C405.686 60.6485 404.991 60.8753 404.605 61.2456C402.648 63.121 400.754 65.0306 398.868 66.9419C398.332 67.4893 397.904 68.0804 397.407 68.6465C396.17 70.0405 394.318 70.8224 391.713 70.4614C389.281 70.1234 387.99 68.9263 387.326 67.4423C387.112 66.9593 386.89 66.4794 386.594 65.8079C385.765 66.2655 385.119 66.6134 384.491 66.9752C382.532 68.1041 380.723 69.3613 378.592 70.342C372.116 73.3308 365.942 71.9994 362.704 66.9963C360.782 64.027 360.232 60.9458 360.37 57.8514C360.451 56.0265 360.848 54.2215 361.105 52.4105C361.22 51.5995 361.721 50.809 361.171 49.9764C358.652 49.0132 356.163 48.0518 353.655 47.1162C353.208 46.947 352.674 46.864 352.169 46.7874C343.4 45.4477 336.385 47.0452 331.095 51.3781C330.099 52.1943 329.269 53.1373 328.634 54.1035C323.891 61.3466 324.236 68.529 331.56 75.5882C331.621 75.6468 331.775 75.6758 331.916 75.7321C332.774 75.7816 332.79 75.2795 333.042 74.9446C333.98 73.705 334.79 72.4169 335.869 71.2336C336.488 70.5542 337.412 69.9526 338.404 69.4859C339.685 68.8831 341.245 68.7776 342.782 69.3481C344.285 69.9061 345.175 70.794 345.045 71.872C344.916 72.9301 344.64 74.0158 344.074 74.9873C343.363 76.197 342.31 77.321 341.345 78.4596C339.2 80.9896 338.862 83.5539 341.441 86.2578C342.057 86.9049 342.595 87.62 342.909 88.3405C343.482 89.6542 342.608 90.9631 341.001 91.5337C339.261 92.1504 337.283 91.9679 335.579 91.0401C333.991 90.1729 333.145 89.029 332.423 87.8176C331.914 86.964 331.754 85.987 330.342 85.3841C328.827 85.7099 327.92 86.5208 326.942 87.2257C322.7 90.3033 318.484 93.3964 314.356 96.5391C311.679 98.571 309.215 100.715 306.558 102.756C305.189 103.805 303.715 104.806 302.101 105.695C300.979 106.314 299.63 106.836 298.235 107.159C294.332 108.063 290.377 107.067 288.07 104.679C287.309 103.895 286.728 103.045 285.905 102.026C284.876 102.72 284.014 103.27 283.208 103.853C280.454 105.848 277.508 107.72 274.124 109.274C272.901 109.835 271.619 110.368 270.259 110.773C267.254 111.67 264.295 111.466 261.507 110.018C260.998 109.755 260.464 109.512 259.751 109.174C259.066 109.718 258.381 110.172 257.862 110.699C255.835 112.749 253.949 114.855 251.851 116.87C249.901 118.747 247.847 120.591 245.649 122.348C244.647 123.143 243.305 123.827 241.895 124.327C238.99 125.356 235.716 124.862 233.472 123.119C232.382 122.272 231.55 121.291 230.629 120.401C229.557 120.264 229.23 120.788 228.818 121.127C226.974 122.657 225.232 124.245 223.381 125.773C221.918 126.982 220.381 128.159 218.81 129.309C213.637 133.092 207.309 131.821 204.908 127.164C204.543 126.452 204.086 125.75 203.535 124.796C202.804 125.246 202.196 125.492 201.854 125.852C198.747 129.085 195.705 132.353 192.591 135.585C190.871 137.373 189.109 139.146 187.235 140.87C186.308 141.726 185.204 142.519 184 143.214C181.496 144.663 178.081 144.628 175.656 142.97C175.292 142.719 174.924 142.477 174.394 142.119C173.782 142.57 173.162 142.949 172.682 143.388C169.935 145.9 167.247 148.44 164.476 150.937C163.313 151.986 162.055 153 160.717 153.961C159.891 154.554 158.92 155.101 157.863 155.518C154.988 156.659 152.025 156.464 149.212 155.02C148.489 154.65 147.85 154.198 147.178 153.784C146.526 153.379 145.877 152.965 145.112 152.476C144.173 152.879 143.315 153.205 142.545 153.585C139.153 155.248 135.836 156.973 132.381 158.582C129.636 159.858 126.776 161.037 123.879 162.174C122.65 162.658 121.691 163.212 121.105 164.069C118.789 167.467 114.733 169.84 109.994 171.771C108.524 172.372 106.888 172.861 105.222 173.224C101.651 174.006 98.1416 173.72 94.824 172.235C93.3097 171.559 91.7688 170.908 90.136 170.196C89.5551 170.523 88.9907 170.724 88.6618 171.036C85.4422 174.025 82.2618 177.031 79.0567 180.023C77.7969 181.201 77.0589 182.4 77.9018 183.964C78.4182 184.924 78.1882 185.96 77.586 186.889C75.9627 189.404 71.1638 190.435 67.23 189.089C64.9268 188.299 63.0859 187.145 62.0889 185.607C61.0711 184.045 60.1795 182.431 59.5984 180.795C58.3597 177.321 58.1587 173.811 58.1213 170.307C58.1004 168.319 58.1196 166.331 58.1131 164.346C57.8814 164.315 57.6445 164.277 57.4128 164.246L57.3646 164.266ZM474.813 17.9515C474.506 18.6446 474.162 19.3297 473.898 20.0324C473.627 20.7488 473.112 21.446 473.492 22.6418C474.678 20.9513 474.816 19.4795 474.813 17.9515ZM113.936 158.516C112.626 158.417 112.415 158.926 112.198 159.364C112.117 159.526 112.382 159.77 112.494 159.98C112.832 159.915 113.373 159.909 113.469 159.765C113.722 159.391 113.787 158.959 113.936 158.516Z" fill="#0E190F"/>
</svg>
